<svg xmlns="http://www.w3.org/2000/svg" width="23.993" height="22.948" viewBox="0 0 23.993 22.948">
  <g id="Group_13007" transform="translate(4632 -1784.13)">
    <circle id="Ellipse_443" cx="2.608" cy="2.608" r="2.608" transform="translate(-4615.31 1801.863)" fill="#fff"/>
    <circle id="Ellipse_444" cx="2.608" cy="2.608" r="2.608" transform="translate(-4625.741 1801.863)" fill="#fff"/>
    <path id="Path_5650" d="M105.02,74.847a.521.521,0,0,0-.391-.176H85.853a.521.521,0,0,0-.511.626l2.086,10.431a.565.565,0,0,0,.58.417l15.647-2.086a.522.522,0,0,0,.449-.453l1.043-8.345A.521.521,0,0,0,105.02,74.847Z" transform="translate(-4713.158 1712.589)" fill="#fff"/>
    <path id="Path_5651" d="M150.947,124.941a.521.521,0,0,1-.514-.436l-1.043-6.259a.522.522,0,0,1,1.029-.171l1.043,6.259a.522.522,0,0,1-.429.6A.5.5,0,0,1,150.947,124.941Z" transform="translate(-4774.081 1671.707)" fill="#26ae60"/>
    <path id="Path_5652" d="M214.331,124.075a.522.522,0,0,1-.522-.475l-.522-5.737a.522.522,0,0,1,.47-.568h0a.522.522,0,0,1,.566.472h0l.522,5.737a.522.522,0,0,1-.472.566h0Z" transform="translate(-4834.856 1672.051)" fill="#26ae60"/>
    <path id="Path_5653" d="M277.855,123.6a.522.522,0,0,1-.522-.522v-5.216a.522.522,0,0,1,1.043,0v5.216A.522.522,0,0,1,277.855,123.6Z" transform="translate(-4895.772 1672.009)" fill="#26ae60"/>
    <path id="Path_5654" d="M331.119,123.021h-.058a.522.522,0,0,1-.464-.574v-.005l.522-4.694a.529.529,0,0,1,.579-.464.522.522,0,0,1,.461.576h0l-.522,4.694A.522.522,0,0,1,331.119,123.021Z" transform="translate(-4946.429 1672.062)" fill="#26ae60"/>
    <path id="Path_5655" d="M384.524,122.323a.522.522,0,0,1-.506-.648l1.043-4.172a.522.522,0,1,1,1.018.229l-.006.023-1.043,4.172A.521.521,0,0,1,384.524,122.323Z" transform="translate(-4997.227 1672.239)" fill="#26ae60"/>
    <path id="Path_5656" d="M21.384,27.36H9.345a3.661,3.661,0,0,1-3.58-2.934L3.223,11.713H.522a.522.522,0,0,1,0-1.043H3.651a.522.522,0,0,1,.511.417L6.789,24.22a2.615,2.615,0,0,0,2.557,2.1H21.384a.522.522,0,0,1,0,1.043Z" transform="translate(-4632 1773.46)" fill="#fff"/>
  </g>
</svg>
