<svg xmlns="http://www.w3.org/2000/svg" xmlns:xlink="http://www.w3.org/1999/xlink" width="428.448" height="329.615" viewBox="0 0 428.448 329.615">
  <defs>
    <linearGradient id="linear-gradient" x1="0.918" y1="0.5" x2="0.067" y2="0.5" gradientUnits="objectBoundingBox">
      <stop offset="0" stop-color="#e2f4ff"/>
      <stop offset="1" stop-color="#d7ecff"/>
    </linearGradient>
    <linearGradient id="linear-gradient-2" x1="0.621" x2="0.398" y2="0.464" gradientUnits="objectBoundingBox">
      <stop offset="0.018" stop-color="#45d8c3"/>
      <stop offset="1" stop-color="#34c8be"/>
    </linearGradient>
    <linearGradient id="linear-gradient-3" x1="0" y1="0.5" x2="1" y2="0.5" xlink:href="#linear-gradient"/>
    <linearGradient id="linear-gradient-4" y1="0.5" x2="1" y2="0.5" gradientUnits="objectBoundingBox">
      <stop offset="0" stop-color="#8ad3ff"/>
      <stop offset="1" stop-color="#5f9cff"/>
    </linearGradient>
    <linearGradient id="linear-gradient-5" x1="0.5" y1="-0.05" x2="0.5" y2="1.124" xlink:href="#linear-gradient"/>
    <linearGradient id="linear-gradient-6" x1="0.437" y1="0.085" x2="1.099" y2="0.085" xlink:href="#linear-gradient"/>
    <linearGradient id="linear-gradient-7" x1="3.828" y1="-2.826" x2="5.139" y2="-2.826" xlink:href="#linear-gradient"/>
    <linearGradient id="linear-gradient-8" x1="1.195" y1="-38.105" x2="2.195" y2="-38.105" xlink:href="#linear-gradient"/>
    <linearGradient id="linear-gradient-9" x1="1.064" y1="-36.695" x2="2.064" y2="-36.695" xlink:href="#linear-gradient"/>
    <linearGradient id="linear-gradient-10" x1="0.934" y1="-35.266" x2="1.934" y2="-35.266" xlink:href="#linear-gradient"/>
    <linearGradient id="linear-gradient-11" x1="0.804" y1="-33.841" x2="1.804" y2="-33.841" xlink:href="#linear-gradient"/>
    <linearGradient id="linear-gradient-12" x1="0.673" y1="-32.418" x2="1.673" y2="-32.418" xlink:href="#linear-gradient"/>
    <linearGradient id="linear-gradient-13" x1="0.543" y1="-30.996" x2="1.543" y2="-30.996" xlink:href="#linear-gradient"/>
    <linearGradient id="linear-gradient-14" x1="0.412" y1="-29.578" x2="1.412" y2="-29.578" xlink:href="#linear-gradient"/>
    <linearGradient id="linear-gradient-15" x1="0.282" y1="-28.144" x2="1.282" y2="-28.144" xlink:href="#linear-gradient"/>
    <linearGradient id="linear-gradient-16" x1="-2.055" y1="2.658" x2="-1.423" y2="2.658" xlink:href="#linear-gradient"/>
    <linearGradient id="linear-gradient-17" x1="-12.322" y1="19.626" x2="-11.619" y2="19.626" xlink:href="#linear-gradient"/>
    <linearGradient id="linear-gradient-18" x1="-6.262" y1="165.374" x2="-5.262" y2="165.374" xlink:href="#linear-gradient"/>
    <linearGradient id="linear-gradient-19" x1="-6.137" y1="166.688" x2="-5.137" y2="166.688" xlink:href="#linear-gradient"/>
    <linearGradient id="linear-gradient-20" x1="-6.012" y1="167.977" x2="-5.012" y2="167.977" xlink:href="#linear-gradient"/>
    <linearGradient id="linear-gradient-21" x1="-5.887" y1="169.266" x2="-4.887" y2="169.266" xlink:href="#linear-gradient"/>
    <linearGradient id="linear-gradient-22" x1="-5.762" y1="170.555" x2="-4.762" y2="170.555" xlink:href="#linear-gradient"/>
    <linearGradient id="linear-gradient-23" x1="-5.637" y1="171.818" x2="-4.637" y2="171.818" xlink:href="#linear-gradient"/>
    <linearGradient id="linear-gradient-24" x1="-5.512" y1="173.133" x2="-4.512" y2="173.133" xlink:href="#linear-gradient"/>
    <linearGradient id="linear-gradient-25" x1="-5.388" y1="174.422" x2="-4.388" y2="174.422" xlink:href="#linear-gradient"/>
  </defs>
  <g id="Group_13092"  transform="translate(-71.337 -401.807)">
    <g id="Group_3837"  transform="translate(71.337 401.807)">
      <g id="Group_3836"  transform="translate(0 0)">
        <ellipse id="Ellipse_349"  cx="196.797" cy="14.276" rx="196.797" ry="14.276" transform="translate(34.853 301.063)" fill="url(#linear-gradient)"/>
        <g id="Group_3779"  transform="translate(293.836 132.952)">
          <path id="Union_1"  d="M39.968,101.062c-.357-3.278-5.106-42.1-28.669-46.508l.165-.881c10.427,1.951,18.822,10.809,24.278,25.613a98.429,98.429,0,0,1,4.643,18.208q.51-4.081,1.2-8.442c3.625-22.47,12.264-54.469,32.829-79.307l.689.569C54.671,35,46.082,66.833,42.474,89.194c-.667,4.142-1.193,8.114-1.606,11.865.01.089.014.138.014.144l-.031,0a214,214,0,0,0-1.338,31.037l-.893.048A214.976,214.976,0,0,1,39.968,101.062ZM20.095,86.793s7.065-3.228,14.622,2.688a15.781,15.781,0,0,1-6.355,1.441A9.831,9.831,0,0,1,20.095,86.793Zm1.377-4.974s3.6-4.152,10.192-2.567c0,0-2.816,3.5-6.745,3.5A7.035,7.035,0,0,1,21.472,81.819Zm27.59-6.574s5.523-5.463,14.654-2.505c0,0-3.976,4.226-9.165,4.226A9.811,9.811,0,0,1,49.062,75.245ZM20.862,76.5a7.887,7.887,0,0,1-1.283-.108s1.99-5.118,8.736-5.844c0,0-2.068,5.951-7.452,5.951ZM39.49,63.107s.019,5.131-4.433,5.919A7.305,7.305,0,0,1,39.49,63.107ZM17.534,67.374a5.207,5.207,0,0,1-1.627-.27,7.31,7.31,0,0,1,6.7-3.13s-1.8,3.4-5.074,3.4Zm39.035-.519a8.064,8.064,0,0,1-5.027-1.679s4.577-2.57,10.735.117a12.235,12.235,0,0,1-5.7,1.562ZM9.5,65.014a7.883,7.883,0,0,1-1.283-.108s1.989-5.119,8.736-5.844c0,0-2.069,5.951-7.452,5.951ZM35.02,53.795s1.291,5.088-2.907,10.334C32.112,64.129,30.186,57.48,35.02,53.795Zm1.718,1.562s5.25-.071,9.376,5.233c0,0-.077,0-.219,0C44.7,60.592,38.938,60.33,36.737,55.356ZM0,57.159s3.148-4.5,9.875-3.6c0,0-2.725,4.212-7.028,4.212A7.217,7.217,0,0,1,0,57.159ZM26.966,46.748s3.13,6.586-2.117,10.295C24.849,57.043,22.672,52,26.966,46.748Zm29.412,7.878s4.3-3.414,10.491-.634A10.425,10.425,0,0,1,60.857,56.3,6.863,6.863,0,0,1,56.378,54.626Zm-40.46-9.055s3.467,3.785.7,7.364A7.309,7.309,0,0,1,15.918,45.571Zm21.523-3.4s7.764.261,11.888,8.928C49.328,51.1,39.015,51.127,37.441,42.176Zm21.425,1.562s6.669-3.981,14.828,1.074a15.366,15.366,0,0,1-7.458,2.2A9.7,9.7,0,0,1,58.866,43.738ZM43.5,28.849s7.587,1.67,10.065,10.941C53.562,39.79,43.416,37.938,43.5,28.849Zm19.629,3.968s6.67-3.981,14.828,1.074a15.361,15.361,0,0,1-7.458,2.2A9.707,9.707,0,0,1,63.125,32.817ZM48.676,23.583s5.249-.072,9.375,5.232c0,0-.077,0-.216,0C56.642,28.818,50.878,28.556,48.676,23.583Zm24.973,2.236a8.062,8.062,0,0,1-5.027-1.679s4.576-2.569,10.735.117a12.236,12.236,0,0,1-5.7,1.562ZM51.872,12.613s7.586,1.668,10.065,10.941C61.938,23.553,51.79,21.7,51.872,12.613Zm21.541,3.618a7.31,7.31,0,0,1,6.905,2.649,7.783,7.783,0,0,1-1.951.24A5.168,5.168,0,0,1,73.414,16.231Zm-15.08-6.86s5.027,1.5,7.376,7.8C65.71,17.172,59.015,15.414,58.334,9.371Zm7.109-7.757s3.817,3.6,3.084,10.284C68.528,11.9,63.336,7.318,65.443,1.614Zm13.106,9.127A7.306,7.306,0,0,1,85.494,8.2s-1.917,2.968-4.946,2.968A5.079,5.079,0,0,1,78.549,10.741ZM71.5,0a7.3,7.3,0,0,1,2.077,7.1S69.457,4.035,71.5,0Zm6.168,6.489A7.883,7.883,0,0,1,76.3,6.365S78.349,1.271,85.1.628c0,0-2.118,5.86-7.437,5.861Z" transform="translate(8.494)" fill="url(#linear-gradient-2)"/>
          <g id="Group_3777"  transform="translate(41.1 59.314)">
            <path id="Path_4414"  d="M425.233,369.816c-25.694,1.272-31.361,17.005-36.835,12.3a4.209,4.209,0,0,1-.7-.753c-3.305-4.556,7.429-11.955,7.38-36.529-.019-15.548-.871-44.3,10.316-47.018,9.574-2.317,6.237,21.133,19.892,18.758,9.927-1.724-3.22-19.822,5.608-23.333,9.778-3.89,9.523,14.977,17.783,9.8,8.244-5.178,10.893-21.739,18.346-17.2.117.07.226.149.326.219,6.883,4.65-.3,15.439-5.356,22.279-5.135,6.949-7.149,8.713-4.888,10.118s15.125-.494,14.324,7.717-22.629,6.756-29.446,15.451,14.327,4.408,9.825,14.322C449.206,361.638,437.994,369.2,425.233,369.816Z" transform="translate(-387.06 -285.06)" fill="url(#linear-gradient-3)"/>
            <path id="Path_4415"  d="M440.952,352.256l-26.477-1.829,18.51-22.353,0,.032,21.425-3.572-19.859,1.643,21.617-26.105-13.4,14.664-6.22-11.955,4.96,13.335-20.44,22.371-14.329-24.771,13.136,26.077-25.642,28.269,2.708,2.356,16.179-18.359Z" transform="translate(-385.735 -282.288)" fill="url(#linear-gradient-4)" style="mix-blend-mode: screen;isolation: isolate"/>
          </g>
          <g id="Group_3778"  transform="translate(0 51.025)">
            <path id="Path_4416"
                d="M353.807,359.2c.058.242.133.479.2.721,2.608,8.8,8.529,19.066,19.2,29.619A46.831,46.831,0,0,0,395.391,402c.185.045.368.09.554.128q1,.231,1.992.416a44.19,44.19,0,0,0,39.609-12.956c7.059-7.257,14.368-16.237,12.486-20.741a2.614,2.614,0,0,0-.264-.519.361.361,0,0,0-.039-.064c-4.711-7.046-14.774-5.4-18.487-7.219a3.543,3.543,0,0,1-.492-.293,2.485,2.485,0,0,1-.361-.308c-2.684-2.794,9.512-8.829,9.334-18.053a11.038,11.038,0,0,0-.153-1.641c-.032-.219-.075-.425-.126-.634-1.613-6.605-9.638-5.614-10.468-8.633a1.8,1.8,0,0,1-.079-.473c0-.174,0-.368,0-.571.123-3.3,1.814-10.081,3.316-17.689.047-.223.1-.453.135-.678,1.346-6.9,2.489-14.419,2.137-20.62-.014-.2-.03-.391-.045-.582-.43-5.854-2.264-10.449-6.636-12.1a4.28,4.28,0,0,0-.409-.148.983.983,0,0,0-.139-.041c-4.517-1.414-9.065.165-13.307,3.454-.231.178-.464.363-.692.557l0,.008c-8.242,6.81-15.174,19.957-18.1,29.826-.094.321-.181.643-.264.951a38.2,38.2,0,0,0-.928,4.152,88.593,88.593,0,0,1-5.9,20.086c-.1.256-.219.509-.328.764-2.4,5.4-4.953,9.3-6.82,10.022a1.859,1.859,0,0,1-.377.1.615.615,0,0,1-.174,0c-3.542,0-14.8-14.649-21.809-12.986a3.824,3.824,0,0,0-.541.163A5.124,5.124,0,0,0,355.7,337.5C352.405,341.9,351.141,349.655,353.807,359.2Z" transform="translate(-352.366 -278.062)" fill="#000000"/>
            <path id="Path_4417"
                d="M353.582,359.12c.058.242.133.479.2.721a64.731,64.731,0,0,0,12.442,4.294,88.691,88.691,0,0,0,9.51,1.814l.015-.129a80.933,80.933,0,0,0,22.126,15.387c-1.639,11-2.5,18.778-2.707,20.715-.029.274-.044.435-.052.464l.564.059c0-.031.018-.167.042-.4.124-1.174.531-4.89,1.257-10.389,3.236-.886,38.652-10.807,52.83-22.893a2.612,2.612,0,0,0-.264-.519c-6.224,5.344-16.672,10.275-26.649,14.181.672-2.6,4.252-16.12,8.123-21.464l-.492-.293c-4.248,5.923-7.994,20.847-8.288,22.01-11.811,4.588-22.807,7.711-25.182,8.371,1.239-9.337,3.36-23.526,6.517-39.2.457.143.924.281,1.381.393,15.428,3.793,30.816-8.479,34.391-11.572-.032-.219-.075-.425-.126-.634-1.867,1.645-8.52,7.236-16.378,10.16.566-2.528,3.131-13.6,5.91-18.794a1.8,1.8,0,0,1-.079-.473c0-.174,0-.368,0-.571-3.008,5.524-6.117,18.492-6.469,20.079-5.558,1.965-12,2.867-18.517.852,2.391-11.822,5.371-24.455,9.011-36.463,2.171.072,13.411.318,19.29-2.156.047-.223.1-.453.135-.678-5.462,2.5-16.753,2.332-19.255,2.265,2.124-6.953,4.468-13.689,7.049-19.929l.052.076a23.094,23.094,0,0,1,14.29-3.033c-.014-.2-.03-.391-.045-.582a24.245,24.245,0,0,0-14,2.8,121.19,121.19,0,0,1,7.362-14.9,4.277,4.277,0,0,0-.409-.148.959.959,0,0,0-.139-.041,138.4,138.4,0,0,0-10.087,21.849c-.751-1.968-4.688-12.679-3.22-18.395-.231.178-.464.362-.692.557l0,.008c-1.176,6.6,3.29,17.794,3.517,18.365l.243-.1a302.3,302.3,0,0,0-9.845,33.147c-1.509-2.038-8.791-12.148-12.016-21.589-.094.321-.181.643-.264.951,3.759,10.38,12.017,21.231,12.1,21.353l.009,0c-1.84,7.642-3.431,15.227-4.8,22.4-2.034-1.806-10.847-10.018-14.137-19.507-.1.256-.219.509-.328.764,3.652,9.829,12.914,18.151,14.337,19.392-1.591,8.414-2.883,16.245-3.884,22.928a78.554,78.554,0,0,1-16.581-10.52,80.346,80.346,0,0,0-.692-21.778,1.856,1.856,0,0,1-.377.1.615.615,0,0,1-.174,0,79.275,79.275,0,0,1,.715,21.235c-8.815-7.343-18.445-18.525-22.524-34.221a3.84,3.84,0,0,0-.541.163,65.033,65.033,0,0,0,17.442,29.7C372.683,364.958,361.971,363.3,353.582,359.12Z" transform="translate(-352.141 -277.981)" fill="#000000" style="mix-blend-mode: screen;isolation: isolate"/>
          </g>
        </g>
        <g id="Group_3784"  transform="translate(0 64.955)">
          <g id="Group_3780"  transform="translate(84.669 3.966)">
            <path id="Path_4418"  d="M433.245,187.616l-.057,12.657L433,414.31a5.313,5.313,0,0,1-5.334,5.307l-251.869-1.031V208.19a8.9,8.9,0,0,1,8.941-8.9l86.745.357,98.844.406,3.746-6.945,4.8-8.882a6.223,6.223,0,0,1,5.557-3.284l42.364.154A6.49,6.49,0,0,1,433.245,187.616Z" transform="translate(-175.795 -180.937)" fill="#dcdada"/>
          </g>
          <rect id="Rectangle_1077"  width="132.513" height="139.102" rx="5.571" transform="translate(106.134)" fill="#000000"/>
          <g id="Group_3783"  transform="translate(141.275 19.573)">
            <g id="Group_3782" >
              <path id="Union_2"  d="M48.807,36.063c-3.65-3.724-10.429-6.037-17.691-6.037s-14.041,2.312-17.693,6.037a1.8,1.8,0,0,1-2.564-2.515c4.367-4.453,11.94-7.112,20.257-7.112S47,29.1,51.37,33.548a1.8,1.8,0,0,1-2.563,2.515ZM53.252,4.49a4.49,4.49,0,1,1,4.49,4.49A4.489,4.489,0,0,1,53.252,4.49ZM0,4.49a4.49,4.49,0,1,1,4.49,4.49A4.49,4.49,0,0,1,0,4.49Z" fill="#fff"/>
            </g>
          </g>
          <path id="Path_4422"  d="M437.782,412.692l-271.146,1.095a8.441,8.441,0,0,1-8.026-5.739L114.928,277.716l-10.159-30.3a8.408,8.408,0,0,1,7.942-11.1l6.539-.028,264.62-1.08a8.419,8.419,0,0,1,8.013,5.754l50.881,151.759,1.305,3.872,1.669,5A8.427,8.427,0,0,1,437.782,412.692Z" transform="translate(-104.32 -166.951)" fill="#efefef"/>
          <path id="Path_4423"  d="M387.127,424.129V199.849" transform="translate(-52.112 -173.479)" fill="none"/>
        </g>
        <g id="Group_3786"  transform="translate(219.69 89.933)">
          <circle id="Ellipse_350"  cx="37.063" cy="37.063" r="37.063" transform="translate(0 58.673) rotate(-52.328)" fill="#fff"/>
          <g id="Group_3785"  transform="translate(38.352 38.352)">
            <line id="Line_136"  x1="28.553" y2="28.553" fill="none" stroke="#d9eafe" stroke-linecap="round" stroke-miterlimit="10" stroke-width="3.554"/>
            <line id="Line_137"  x1="28.553" y1="28.553" fill="none" stroke="#d9eafe" stroke-linecap="round" stroke-miterlimit="10" stroke-width="3.554"/>
          </g>
        </g>
        <g id="Group_3810"  transform="translate(39.649 30.93)">
          <path id="Path_4463"
              d="M131.028,99c7.743,0,13.06,4.669,13.06,12.174,0,8.627-5.968,12.174-14.241,12.174l-.178,5.614H125l-.237-9.337h1.714c6.737,0,12.469-1.3,12.469-8.451,0-4.728-3.073-7.682-7.86-7.682-4.846,0-7.86,2.777-7.86,7.387h-5.082C118.086,103.723,123.286,99,131.028,99ZM127.3,141.071a3.665,3.665,0,1,1,3.547-3.664A3.606,3.606,0,0,1,127.3,141.071Z" transform="translate(-118.145 -98.995)" fill="#000000"/>
        </g>
        <g id="Group_3811"  transform="translate(247.09 6.47)">
          <path id="Path_4464"  d="M317.86,129.367c4.529-2.29,9.02-1.132,11.24,3.256,2.553,5.046.11,8.887-4.728,11.334l1.557,3.335-2.732,1.381-2.9-5.391,1-.507c3.94-1.993,6.909-4.448,4.794-8.631-1.4-2.765-4.07-3.583-6.87-2.168-2.834,1.433-3.776,3.95-2.412,6.646l-2.972,1.5C311.69,135.961,313.333,131.657,317.86,129.367Zm10.269,25.711a2.4,2.4,0,1,1,.99-3.191A2.364,2.364,0,0,1,328.13,155.078Z" transform="translate(-312.904 -128.218)" fill="url(#linear-gradient-5)"/>
        </g>
        <g id="Group_3823"  transform="translate(116.781)">
          <g id="Group_3812"  transform="translate(0)">
            <path id="Path_4465"  d="M235.905,149.644l-11.667,9.89a3.714,3.714,0,0,1-5.228-.431l-16.108-19,.516-7.616,10.44-8.849a3.712,3.712,0,0,1,5.228.43l17.251,20.352A3.714,3.714,0,0,1,235.905,149.644Zm-32.336-9.764,15.938,18.8a3.061,3.061,0,0,0,4.311.355l11.668-9.89a3.063,3.063,0,0,0,.355-4.311l-17.25-20.352a3.064,3.064,0,0,0-4.312-.355L204.05,132.8Z" transform="translate(-202.902 -122.756)" fill="url(#linear-gradient-6)"/>
          </g>
          <g id="Group_3813"  transform="translate(0.333 9.887)">
            <path id="Path_4466"  d="M203.683,131.1l3.415,4.029-3.915,3.318Z" transform="translate(-203.183 -131.102)" fill="url(#linear-gradient-7)"/>
          </g>
          <g id="Group_3822"  transform="translate(4.418 6.742)">
            <g id="Group_3814"  transform="translate(0 0)">
              <rect id="Rectangle_1078"  width="13.82" height="0.465" transform="translate(0 8.936) rotate(-40.286)" fill="url(#linear-gradient-8)"/>
            </g>
            <g id="Group_3815"  transform="translate(1.802 2.126)">
              <rect id="Rectangle_1079"  width="13.82" height="0.464" transform="matrix(0.763, -0.647, 0.647, 0.763, 0, 8.936)" fill="url(#linear-gradient-9)"/>
            </g>
            <g id="Group_3816"  transform="translate(3.604 4.252)">
              <rect id="Rectangle_1080"  width="13.82" height="0.465" transform="translate(0 8.936) rotate(-40.286)" fill="url(#linear-gradient-10)"/>
            </g>
            <g id="Group_3817"  transform="translate(5.407 6.378)">
              <rect id="Rectangle_1081"  width="13.82" height="0.465" transform="translate(0 8.936) rotate(-40.286)" fill="url(#linear-gradient-11)"/>
            </g>
            <g id="Group_3818"  transform="translate(7.209 8.504)">
              <rect id="Rectangle_1082"  width="13.82" height="0.465" transform="translate(0 8.936) rotate(-40.287)" fill="url(#linear-gradient-12)"/>
            </g>
            <g id="Group_3819"  transform="translate(9.011 10.631)">
              <rect id="Rectangle_1083"  width="13.82" height="0.465" transform="translate(0 8.936) rotate(-40.286)" fill="url(#linear-gradient-13)"/>
            </g>
            <g id="Group_3820"  transform="translate(10.813 12.757)">
              <rect id="Rectangle_1084"  width="13.82" height="0.464" transform="translate(0 8.936) rotate(-40.286)" fill="url(#linear-gradient-14)"/>
            </g>
            <g id="Group_3821"  transform="translate(12.615 14.883)">
              <rect id="Rectangle_1085"  width="13.82" height="0.465" transform="translate(0 8.936) rotate(-40.286)" fill="url(#linear-gradient-15)"/>
            </g>
          </g>
        </g>
        <g id="Group_3835"  transform="translate(358.651 47.452)">
          <g id="Group_3824"  transform="translate(0 0)">
            <path id="Path_4467"  d="M420.5,198.061l-12.011-9.472a3.712,3.712,0,0,1-.615-5.209L423.3,163.819l7.567-1.006,10.746,8.475a3.714,3.714,0,0,1,.616,5.21l-16.52,20.947A3.712,3.712,0,0,1,420.5,198.061Zm3.147-33.632-15.262,19.354a3.061,3.061,0,0,0,.507,4.3L420.9,197.55a3.062,3.062,0,0,0,4.3-.508l16.521-20.947a3.061,3.061,0,0,0-.507-4.3l-10.531-8.305Z" transform="translate(-407.08 -162.813)" fill="url(#linear-gradient-16)"/>
          </g>
          <g id="Group_3825"  transform="translate(16.395 0.341)">
            <path id="Path_4468"  d="M428.221,163.1l-3.271,4.147-4.03-3.178Z" transform="translate(-420.921 -163.101)" fill="url(#linear-gradient-17)"/>
          </g>
          <g id="Group_3834"  transform="translate(6.363 5.005)">
            <g id="Group_3826"  transform="translate(12.081 0)">
              <rect id="Rectangle_1086"  width="13.82" height="0.465" transform="translate(0.288 0) rotate(38.26)" fill="url(#linear-gradient-18)"/>
            </g>
            <g id="Group_3827"  transform="translate(10.355 2.189)">
              <rect id="Rectangle_1087"  width="13.82" height="0.465" transform="translate(0.288 0) rotate(38.26)" fill="url(#linear-gradient-19)"/>
            </g>
            <g id="Group_3828"  transform="translate(8.629 4.377)">
              <rect id="Rectangle_1088"  width="13.82" height="0.465" transform="translate(0.288 0) rotate(38.26)" fill="url(#linear-gradient-20)"/>
            </g>
            <g id="Group_3829"  transform="translate(6.904 6.565)">
              <rect id="Rectangle_1089"  width="13.82" height="0.465" transform="translate(0.288 0) rotate(38.26)" fill="url(#linear-gradient-21)"/>
            </g>
            <g id="Group_3830"  transform="translate(5.178 8.754)">
              <rect id="Rectangle_1090"  width="13.82" height="0.465" transform="translate(0.288 0) rotate(38.26)" fill="url(#linear-gradient-22)"/>
            </g>
            <g id="Group_3831"  transform="translate(3.452 10.942)">
              <rect id="Rectangle_1091"  width="13.82" height="0.465" transform="translate(0.288 0) rotate(38.26)" fill="url(#linear-gradient-23)"/>
            </g>
            <g id="Group_3832"  transform="translate(1.726 13.131)">
              <rect id="Rectangle_1092"  width="13.82" height="0.465" transform="translate(0.288 0) rotate(38.26)" fill="url(#linear-gradient-24)"/>
            </g>
            <g id="Group_3833"  transform="translate(0 15.319)">
              <rect id="Rectangle_1093"  width="13.82" height="0.465" transform="translate(0.288 0) rotate(38.26)" fill="url(#linear-gradient-25)"/>
            </g>
          </g>
        </g>
      </g>
    </g>
  </g>
</svg>
