<svg xmlns="http://www.w3.org/2000/svg" width="1298.767" height="1889.6" viewBox="0 0 1298.767 1889.6">
  <g id="Group_12406" transform="translate(-3355.903 -1577)">
    <g id="Capa_1" transform="translate(5225.87 1251.7)">
      <g id="Group_12405">
        <g id="Group_12385">
          <g id="Group_12384">
            <path id="Path_4211" d="M-1350.5,1302.6c20.7-21.6,36.9-52.3,38-52.3-2.5-13.7-10-25.4-21.5-29.1-16.2,12.5-37.7,41.3-50.1,61.9C-1372.6,1291.1-1362.7,1295.9-1350.5,1302.6Z" fill="#f2bba0"/>
            <g id="Group_12383">
              <path id="Path_4212" d="M-1689.1,595.2c7.9-17,22.4-30.8,40.5-36.8,17.9-5.9,38.2-5.1,55,3.5a21.546,21.546,0,0,0,5.9,2.4,21.384,21.384,0,0,0,6.2-.2,62.347,62.347,0,0,1,45.2,13c26.2,20.8,31.4,65.1,5.8,89-10.2,9.5-24.2,13.8-38.1,14.8-13.9.9-27.7-1.4-41.4-3.6-11.1-1.8-22.1-4.3-33.3-5.9-10.8-1.6-23.7.7-33.7-4.7-9.1-5-15.4-17.1-18-26.9C-1698.7,625.2-1695.4,608.7-1689.1,595.2Z" fill="#ecbf76"/>
              <path id="Path_4213" d="M-1591.2,579.7a63.668,63.668,0,0,0-57.8.8,63.669,63.669,0,0,0-32.5,47.8" fill="none" stroke="#f6cc82" stroke-linecap="round" stroke-linejoin="round" stroke-miterlimit="10" stroke-width="2.647"/>
              <path id="Path_4214" d="M-1597.4,616.1a50.162,50.162,0,0,0-43.7,3.3,50.451,50.451,0,0,0-24,36.7" fill="none" stroke="#f6cc82" stroke-linecap="round" stroke-linejoin="round" stroke-miterlimit="10" stroke-width="2.647"/>
              <path id="Path_4215" d="M-1586.7,599.3c17.3-3.9,36.6,4,46.4,18.8s9.4,35.6-1,50.1" fill="none" stroke="#f6cc82" stroke-linecap="round" stroke-linejoin="round" stroke-miterlimit="10" stroke-width="2.647"/>
              <path id="Path_4216" d="M-1599.7,596.9c-21-8.4-37.3-7.3-53.5,6.9-7.3,6.3-14.9,19.7-17.5,29" fill="none" stroke="#eaae68" stroke-linecap="round" stroke-linejoin="round" stroke-miterlimit="10" stroke-width="2.647"/>
              <path id="Path_4217" d="M-1584.3,580.9c3.7-2.2,8.3-2.7,12.6-2.6a53.977,53.977,0,0,1,41.3,21.7,54,54,0,0,1,8.3,45.9" fill="none" stroke="#eaae68" stroke-linecap="round" stroke-linejoin="round" stroke-miterlimit="10" stroke-width="2.647"/>
              <path id="Path_4218" d="M-1592.3,632.8c8.3-3.3,18.1-1.3,25.3,3.9,7.3,5.2,12.2,13.1,15.3,21.4" fill="none" stroke="#eaae68" stroke-linecap="round" stroke-linejoin="round" stroke-miterlimit="10" stroke-width="2.647"/>
              <path id="Path_4219" d="M-1379.5,1262.9a437.891,437.891,0,0,1-29.9,32.3c-6,5.8-12.1,11.4-18.3,16.4a165.2,165.2,0,0,1-18.4,13.3,57.236,57.236,0,0,1-6,3.4c-2.5,1.1-4.4-3.4-7.4-10-3-6.7-5.8-14.1-8.4-21.8a496.365,496.365,0,0,1-13.2-48.8c-3.8-16.9-7.1-34.2-10.2-51.7-3.2-17.6-6.1-35.2-9.5-53.8-.2-.7-.3-1.6-.5-2.4-5.4-22-22.3-37-49.7-30a41.166,41.166,0,0,0-30,49.7v.1c4.2,16.9,8.2,34.8,12.5,52.7,4.3,18,8.9,36.1,14.2,54.3s11.1,36.6,18.5,55.2c3.8,9.3,7.9,18.7,12.9,28.2a162.22,162.22,0,0,0,19.4,29.2l.8.9.4.5.7.8c1,1.1,2,2.1,3.1,3.1a53.165,53.165,0,0,0,7.3,5.8,52.667,52.667,0,0,0,17.3,7.4,56.287,56.287,0,0,0,16.4,1.4,70.181,70.181,0,0,0,13.2-2.1,95.2,95.2,0,0,0,19.6-7.8,132.815,132.815,0,0,0,15-9.3,227.261,227.261,0,0,0,24.4-20.1c7.4-6.9,14.3-14,20.9-21.2a493.55,493.55,0,0,0,31.4-38.5C-1348.3,1287.4-1363.5,1274.6-1379.5,1262.9Z" fill="#940f7c"/>
              <path id="Path_4220" d="M-1571.5,1113.8a8.434,8.434,0,0,0,.6-4.7c-.9-3.7-12-4.9-15.5-6-6.8-2-14.4-4.2-20.6-7.9-10.3-6.2-13.8-18.8-14.4-30-.4-7-1.1-13.9-1-20.9,0-1.9,1.1-21.5,2.9-21.5l-20.7-.1c-1.6,0-3.1,0-4.7-.1-1.6.1-3.1.1-4.7.1l-20.7,2.8c4.9,18,2.7,38.1-4.2,55.3-3.7,9.2-11.9,15.1-20.6,19.2-4.7,2.2-10.6,3.6-15.6,5.1-3.9,1.2-10.3,1.5-10,6.7a33.227,33.227,0,0,0,2.4,10.8,55.55,55.55,0,0,0,5,9.3,117.949,117.949,0,0,0,30,31.4,121.62,121.62,0,0,0,18.8,11c5.5,2.6,10.8,5.7,16.4,8,5.9,2.4,11.1-1.4,16.4-4.2a136.1,136.1,0,0,0,31.2-21.4c12.7-11.7,23-26.3,28.8-42.5C-1571.6,1114-1571.6,1113.9-1571.5,1113.8Z" fill="#f2bfa8"/>
              <g id="Group_12367">
                <g id="Group_12366">
                  <g id="Group_12365">
                    <path id="Path_4221" d="M-1438.8,2144.7c-1.7,17.7-29.4,19.9-71.5,13.3-61.6-9.6-63.4-1.4-67.3-39.7,0-19.3,2.9-20.9,20.5-21.5,15.8-.5,26.3-3.2,50.1,6.8C-1469.5,2117.8-1436.5,2120.7-1438.8,2144.7Z" fill="#fff"/>
                    <path id="Path_4222" d="M-1438.9,2138.8c-2.6,15.3-28,15.7-70.7,10.9-20.1-2.3-38.4-3.6-59.9-8.7-3.1-.7-5.2-1.1-6.3-4-5.6-15.2-4.1-46.3-2.9-47.3,2.8-2.4,7-1.9,10.7-1.7,13.6,1.1,27.2-1.4,40.7-3.1a7.807,7.807,0,0,1,3.4.1,7.9,7.9,0,0,1,3.1,2.4c15.1,15.8,36.2,20.8,55.6,29.2C-1457.6,2119.9-1436.9,2127.2-1438.9,2138.8Z" fill="#cbccce"/>
                  </g>
                </g>
              </g>
              <g id="Group_12370">
                <g id="Group_12369">
                  <g id="Group_12368">
                    <path id="Path_4223" d="M-1656.1,2155.1c-4.2,17.3-32,15.5-72.7,2.9-59.5-18.4-62.5-10.5-60.9-48.9,2.8-19.1,5.8-20.3,23.3-18.3,15.7,1.7,26.5.6,48.6,14C-1682.6,2124.1-1650.4,2131.7-1656.1,2155.1Z" fill="#fff"/>
                    <path id="Path_4224" d="M-1655.4,2149.3c-4.8,14.8-30,11.6-71.5.6-19.6-5.2-37.5-9.1-58.1-17.3-2.9-1.2-5-1.8-5.6-4.9-3.3-15.9,2.6-46.4,4-47.3,3.1-1.9,7.2-.9,10.8-.1,13.3,3.1,27.1,2.5,40.7,2.8a7.451,7.451,0,0,1,3.3.6,8.059,8.059,0,0,1,2.7,2.8c12.7,17.8,32.8,25.8,50.8,36.9C-1671.1,2127.9-1651.7,2138.1-1655.4,2149.3Z" fill="#cbccce"/>
                  </g>
                </g>
              </g>
              <path id="Path_4225" d="M-1586.3,2098.8c22.2-1.2,52.4-3,71.5-8.5-6.6-22.2-7.8-48.7-7.3-70.6q.6-34.35,2.7-68.5c2.9-45.5,7.4-90.9,14.7-135.3l.3-2.2.3-2.9c.2-1.9.5-4,.6-5.7.3-3.7.6-7.3.8-10.8.4-7,.5-13.6.6-20.2,0-13-.4-25.6-1.1-38-1.4-24.7-3.3-48.8-6-72.6-2.6-23.8-5.5-47.4-8.5-70.8l-9.5-69.4c-.1-.9-.3-2-.5-3-6-31.7-36.6-10.2-68.3-4.2s-52.5-5.8-46.5,25.9v.2c4.4,23.4,9.3,46.2,13.9,69,4.7,22.7,9.3,45.3,13.5,67.8,4.1,22.5,8.3,44.8,11.5,66.7,3.1,21.7,5.6,43.6,4.9,60.4a1349.673,1349.673,0,0,0,.9,145.1q2.25,36,6.3,71.9C-1588.5,2047.1-1587.3,2079.4-1586.3,2098.8Z" fill="#4a403e"/>
              <path id="Path_4226" d="M-1700.8,1505.1c-35,1.4-62.2-11.4-60.7,23.6v.2c1,24.6,2.6,48.1,4,71.6,1.5,23.4,2.9,46.5,4,69.4s1.9,45.6,1.9,67.6c0,21.8-.8,43.9-4,59.5a1422.166,1422.166,0,0,0-24.2,143.2c-5.6,47.8-13.9,145.8-13.8,147,19.8,5.4,49,5.8,67.3,1,.1-.3,11.3-90,22.2-134.3a1285.424,1285.424,0,0,1,39.2-130.5c.4-1.1,1.1-3.2,1.7-5.1s1.2-3.9,1.7-5.6c1-3.7,2-7.3,2.7-10.7,1.7-7,2.9-13.6,4.1-20.1,2.3-13,3.9-25.5,5.4-37.9,2.8-24.7,4.7-48.9,6.3-72.8s2.8-47.7,4-71.1,2.3-46.8,4-69a59.025,59.025,0,0,0,.1-7.3C-1636.4,1488.6-1665.9,1503.7-1700.8,1505.1Z" fill="#4a403e"/>
              <path id="Path_4227" d="M-1508.1,1598.4c-12.2,7.6-36.5,10.9-50.8,12.3-68.1,6.6-147.2,3.8-216-28.9a20.682,20.682,0,0,1-9.9-10.7c-2.2-5-1.6-10.7-.9-16.1,4.2-36.6,7.7-31.1,10.2-68,2.1-30.8,3.4-61.6,3.7-92.4v-.8c.2-15.5.1-31.1-.3-46.6v-.5c-.2-7.8-.4-15.5-.8-23.3q-.9-21.15-2.7-42.3c-2.6-30.8-5.9-43.3-5.9-74.2,0-23.6-16.7-74.8,8.1-90.9,18.9-12.2,53.3-14.2,77.9-20.4,5-1.3,29.5,67.7,49.9,68.3,20.1.6,36.7-73.3,46.7-69.5,20.1,7.6,47,13.4,68.3,14.1a5.922,5.922,0,0,1,3.6,1.8,8.375,8.375,0,0,1,2,4.6c3.2,16-.6,37.3-1.9,53.6-1.9,26.3-2.8,57.2-4.2,83.4-1.8,32.2-2.5,59.6-3.9,91.7-1.2,27.6-.1,55.3,1.8,82.9a560.882,560.882,0,0,0,15.4,97.5C-1510.4,1553.7-1499,1592.8-1508.1,1598.4Z" fill="#940f7c"/>
              <path id="Path_4228" d="M-1456.1,818c-5.4-41.2-10.3-85.6-36.5-119.3-4.5-5.8-9.5-11.3-15.7-15.2s-13.7-6.1-21-4.8a34.918,34.918,0,0,0-4-6.7c-13.3-17.5-42.6-23.1-62.7-25-41.7-3.8-74.6-4.9-116.2,2.3-28.6,4.9-57.9,27.4-78.6,47.6-.7.6-1.3,1.3-2,1.9a158.662,158.662,0,0,0-41,69.9c-8.5,30.4-9.7,63.1-6,94.4l.3,2.1c4.1,30.5,18.9,57.1,33.7,83.8,5.2,9.4,10.5,18.9,17.3,27.1,25.8,31.3,69.4,41.2,109.8,44.8,44.8,4,91.3,2.6,133-14.2a125.721,125.721,0,0,0,24.4-12.7c15.7-10.7,27.9-25.9,37.7-42.2a208.325,208.325,0,0,0,28.7-92.7A201.481,201.481,0,0,0-1456.1,818Z" fill="#ecbf76"/>
              <path id="Path_4229" d="M-1478.9,857.3c.3,72.3-35.8,139.6-101.6,173.6a370.047,370.047,0,0,1-52.7,22.3c-3.8,1.3-7.6,2.5-11.6,2.6-4.8.1-9.4-1.3-14-2.8-20.8-6.6-40.7-12.8-60-22.5a175.643,175.643,0,0,1-34.1-22.3c-24.4-20.5-42.1-47.7-52.3-77.5a229.366,229.366,0,0,1-11.9-73.4c-1.6-127.3,75.7-177.6,169.1-177.6S-1479.5,716.4-1478.9,857.3Z" fill="#f2bfa8"/>
              <g id="Group_12371">
                <path id="Path_4230"  d="M-1506,890.7c-4,21.1,6.9,40.9,24.2,44.1s34.5-11.3,38.5-32.4-6.9-40.9-24.2-44.1C-1484.9,855.1-1502.1,869.6-1506,890.7Z" fill="#f2bfa8"/>
                <path id="Path_4231"  d="M-1476,875.2c5.4-.9,12.9,2.6,15.7,6.7,3.5,5.2,4.8,12.7,2.7,20.1" fill="none" stroke="#efa28a" stroke-linecap="round" stroke-linejoin="round" stroke-miterlimit="10" stroke-width="4.29"/>
                <path id="Path_4232"  d="M-1462.6,880.8c-4.5,1.8-9.4,8.8-11.3,13.8" fill="none" stroke="#efa28a" stroke-linecap="round" stroke-linejoin="round" stroke-miterlimit="10" stroke-width="4.29"/>
              </g>
              <g id="Group_12372">
                <path id="Path_4233" d="M-1789.5,890.7c3.9,21.1-6.9,40.9-24.2,44.1s-34.5-11.3-38.5-32.4c-3.9-21.1,6.9-40.9,24.2-44.1S-1793.5,869.6-1789.5,890.7Z" fill="#f2bfa8"/>
                <path id="Path_4234" d="M-1819.5,875.2c-5.4-.9-12.9,2.6-15.7,6.7-3.5,5.2-4.8,12.7-2.7,20.1" fill="none" stroke="#efa28a" stroke-linecap="round" stroke-linejoin="round" stroke-miterlimit="10" stroke-width="4.29"/>
                <path id="Path_4235" d="M-1833,880.8c4.5,1.8,9.4,8.8,11.3,13.8" fill="none" stroke="#efa28a" stroke-linecap="round" stroke-linejoin="round" stroke-miterlimit="10" stroke-width="4.29"/>
              </g>
              <g id="Group_12379">
                <path id="Path_4236" d="M-1645.8,916.2a19.935,19.935,0,0,1,13.6-1.2c6.4,1.9,10.3,7.3,8.1,14.1-2.6,8.2-11.6,9.8-18.6,9.3" fill="none" stroke="#efa28a" stroke-linecap="round" stroke-linejoin="round" stroke-miterlimit="10" stroke-width="4.72"/>
                <g id="Group_12373">
                  <path id="Path_4237" d="M-1704.2,910.4c0,9.8-5.1,17.8-11.5,17.8-6.3,0-11.5-8-11.5-17.8s5.1-17.8,11.5-17.8C-1709.4,892.7-1704.2,900.6-1704.2,910.4Z" fill="#945449"/>
                  <path id="Path_4238" d="M-1715.7,901.3c0,2.5-1.7,4.6-3.7,4.6-2.1,0-3.7-2.1-3.7-4.6s1.7-4.6,3.7-4.6S-1715.7,898.7-1715.7,901.3Z" fill="#fff"/>
                </g>
                <g id="Group_12374">
                  <path id="Path_4239" d="M-1564.4,910.4c0,9.8-5.1,17.8-11.5,17.8-6.3,0-11.5-8-11.5-17.8s5.1-17.8,11.5-17.8C-1569.6,892.7-1564.4,900.6-1564.4,910.4Z" fill="#945449"/>
                  <path id="Path_4240" d="M-1575.9,901.3c0,2.5-1.7,4.6-3.7,4.6-2.1,0-3.7-2.1-3.7-4.6s1.7-4.6,3.7-4.6S-1575.9,898.7-1575.9,901.3Z" fill="#fff"/>
                </g>
                <g id="Group_12376">
                  <g id="Group_12375">
                    <path id="Path_4241" d="M-1584.5,864.9s.7,0,1.9-.1a38.7,38.7,0,0,1,5.1-.1,65.557,65.557,0,0,1,7.3.5c2.6.2,5.4.9,8.1,1.3,2.7.7,5.5,1.2,7.9,2.1a56.06,56.06,0,0,1,6.7,2.5,27.793,27.793,0,0,1,4.6,2.3c1.1.6,1.7,1,1.7,1a1.374,1.374,0,0,1,.5,1.8,1.282,1.282,0,0,1-1.7.5l-.2-.1-1.6-.8a33.525,33.525,0,0,0-4.4-1.9,63.423,63.423,0,0,0-6.5-2c-2.4-.7-5.1-1.1-7.7-1.6-2.7-.3-5.3-.7-7.8-.8a51.24,51.24,0,0,0-6.7-.1c-1.9,0-3.6.3-4.8.4s-1.9.2-1.9.2a2.627,2.627,0,0,1-3-2.3,2.7,2.7,0,0,1,2.3-3C-1584.7,864.9-1584.6,864.9-1584.5,864.9Z" fill="#dfaa6e"/>
                  </g>
                </g>
                <g id="Group_12378">
                  <g id="Group_12377">
                    <path id="Path_4242" d="M-1707.6,869.7s-.7-.1-1.9-.2a33.26,33.26,0,0,0-4.8-.2,54.743,54.743,0,0,0-6.7.3c-2.5.1-5.1.7-7.8,1-2.6.6-5.3,1-7.7,1.8a44.855,44.855,0,0,0-6.5,2.2,25.526,25.526,0,0,0-4.3,2l-1.6.8-.2.1a1.234,1.234,0,0,1-1.7-.6,1.282,1.282,0,0,1,.5-1.7s.6-.4,1.7-1a25.528,25.528,0,0,1,4.5-2.4,54.761,54.761,0,0,1,6.7-2.7c2.5-1,5.2-1.6,7.9-2.4,2.7-.5,5.5-1.3,8.1-1.6a70.492,70.492,0,0,1,7.3-.8,47.073,47.073,0,0,1,5.1-.1h1.9a2.606,2.606,0,0,1,2.6,2.7,2.667,2.667,0,0,1-2.7,2.6C-1707.5,869.7-1707.6,869.7-1707.6,869.7Z" fill="#dfaa6e"/>
                  </g>
                </g>
                <path id="Path_4243" d="M-1671.9,987.4c-1.5-.7,0-4.6.5-6.3,3.2-10.3,12.5-20.8,28.2-20.7,11.9,0,28.1,7.3,33.3,17.4,1.5,2.9,5,9.8,1.2,11.1-2.2.7-5.4-.3-7.6-.7-6.5-1.2-12.9-2.8-19.6-3.4-9.9-.9-19.5.3-29.3,1.9C-1666.5,986.8-1670.6,988-1671.9,987.4Z" fill="#9b4b4f"/>
              </g>
              <path id="Path_4244" d="M-1622,1038c-32.2,10.9-52.8,4.4-93-12.3-17.9-7.4-36.2-16.8-50.9-29.7a150.039,150.039,0,0,0,13,12.2,171.151,171.151,0,0,0,34.1,22.3c19.3,9.7,39.2,15.9,60,22.5,4.5,1.4,9.2,2.9,14,2.8,4-.1,7.8-1.3,11.6-2.6a387.157,387.157,0,0,0,52.7-22.3c49.7-25.7,82.5-70.5,95.4-122C-1509,966.1-1563.4,1018.2-1622,1038Z" fill="#f6ebea"/>
              <g id="Group_12380">
                <path id="Path_4245" d="M-1343.3,1202.5c4.1-9.8,11.3-18,18.4-26,7.3-8.3,14.6-16.6,22-24.9,3.7-4.2,8.9-8.9,14.3-7.2,11.4,3.7-1.1,17.5-5.2,21.7a72.1,72.1,0,0,0-8.4,9.9c-1.5,2.2-1.9,2.7.4,3.5,2.5.9,5.4,1,8,1.9a14.274,14.274,0,0,1,5.5,3.1,7.421,7.421,0,0,1,2.4,5.7,9.7,9.7,0,0,1,8,3.2,9.815,9.815,0,0,1,2,8.4,6.218,6.218,0,0,1,5.5,3.7,14.567,14.567,0,0,1,1.1,6.9c-.4,12.3-8.6,23.4-16.6,32.2-16.3,17.8-37.9,14.5-52.4-3.8C-1349,1227.4-1348.7,1215.4-1343.3,1202.5Z" fill="#f2bfa8"/>
                <path id="Path_4246" d="M-1336.2,1198a55.292,55.292,0,0,1,33.2-8.2c2.1.2,4.3.4,6.1,1.5a5.8,5.8,0,0,1,3,5.2c-.3,2.9-3.4,4.7-6.2,5.6-4.1,1.4-13.1,2-17.5,2.3,4.7,3.5,6.6,5.4,8.6,11.3,4.6,13.7-7.6,24.3-20.7,28" fill="none" stroke="#efa28a" stroke-linecap="round" stroke-linejoin="round" stroke-miterlimit="10" stroke-width="2.647"/>
              </g>
              <g id="Group_12381">
                <path id="Path_4247" d="M-1782.5,1450.8c19,23.1,47.6,42.8,47.5,43.9,13.9-.9,26.4-6.9,31.4-17.9-10.5-17.6-36.6-42.3-55.6-57.1C-1768.5,1430.2-1774.3,1439.5-1782.5,1450.8Z" fill="#f2bba0"/>
                <path id="Path_4248" d="M-1739.3,1517.5l6-.3c9.8-.6,19.5-1.7,29.2-2.8a199.409,199.409,0,0,0,41.1-8.8,27.285,27.285,0,0,0-4-5.5c-2.8-3-6.4-5.8-9.1-8.6-6.6-6.9-15.9-16.4-26.1-16.9-13.3-.7-26.8,5.3-34.3,15.4-4.3,6.1-4.2,20.1-2.8,27.5Z" fill="#f2bba0"/>
              </g>
              <path id="Path_4249"  d="M-1746.9,1425.4c-20-17.7-39-35.3-42.6-39.5-18.2-20.7-8.7-51-1-73.9,5.2-15.5,11.7-31.2,18.6-46.8,2.9-6.3,5.9-12.7,9-19-.8-17.8-4.8-121.5-5.1-132.1a39.612,39.612,0,0,0-25.6,20,985.05,985.05,0,0,0-46.9,102.5c-6.8,17.7-13.1,35.7-18.3,54.6-8.1,29.4-20.2,78.5-.5,105.7,29.8,41,13.7,19.2,48.6,52.1,9,8.5,17.7,15.9,26.4,22.7C-1771.4,1456.7-1759.2,1441-1746.9,1425.4Z" fill="#940f7c"/>
              <path id="Path_4250"  d="M-1752.5,1519.3s22.2-.3,30.8-.9c16.9-1.2,59.7-11,66.6-14.1" fill="none" stroke="#710019" stroke-linejoin="round" stroke-miterlimit="10" stroke-width="7.941"/>
              <path id="Path_4251"  d="M-1660.6,817.6c-20.7,1.4-41.1,3.8-61.3,9.1-17.5,4.6-34.1,8.9-49.4,19.2a112.377,112.377,0,0,0-20,17.1,110.144,110.144,0,0,0-8.7,10.5c-1.7,2.4-4.1,8.5-6.4,9.9a123.241,123.241,0,0,1,64.4-18.5c21.2-.1,42,4.1,63.3,3.8,19.4-.3,38.4-4.8,57-10.3,15.5-4.6,30.9-10.2,44.7-18.6,12.1-7.3,23.3-17.3,27.3-30.6a5.849,5.849,0,0,1,2.8-3.6c-.6-1.6-1.1-3.2-1.6-4.8-6.4,2.1-12.7,4.4-19.2,6.2C-1598,815.3-1629.5,815.5-1660.6,817.6Z" fill="#f6ebea"/>
              <path id="Path_4252"  d="M-1819.2,854.3c.1.4.1.7.2,1.1,1.2,8.4,2.3,19,5.3,26.9,2.5,6.5,4.2,11.9,9.6,20.5.9-18.1,5.5-28.1,21.6-37.4,12.7-7.4,27.6-10.8,41.9-13.2a591.746,591.746,0,0,1,81.9-8.2c44.8-1.4,71.3-3.7,107.4-32.5,23.8,19.7,60,58,60,88.6a163.265,163.265,0,0,0,13.2-45.4c1.8-14.8,3-30,2.1-44.8,0-16.6-3.1-39.7-9.1-54.9-5.7-14.6-12.5-22.9-20.2-36.6-7.2-12.7-18.4-28.5-32.4-33.9-17.5-6.7-36.2-10.6-54.7-13-29.9-4-60.2-4.2-90.3-5.1-13.6-.4-24.1-.5-37.1,3.8-12.7,4.3-24.5,10.8-36.1,17.4-38.8,22-58.5,60.1-63.3,103.7C-1820.7,804.9-1821.1,840.6-1819.2,854.3Z" fill="#ecbf76"/>
              <path id="Path_4253"  d="M-1533.3,671.9c-26.6-23.1-82.2-21.9-125-21.2-20.4.3-44.1,3.2-63.3,10.3-18.5,6.8-35.3,18-50.3,30.6-23.6,19.7-44.8,49.8-55.4,78.3-11.6,31.1-11.9,62-12.2,95.2l-.3-2.1c-3.7-31.3-2.5-63.9,6-94.4a159.611,159.611,0,0,1,41-69.9c.7-.7,1.3-1.3,2-1.9,20.8-20.1,50.1-42.6,78.6-47.6,41.5-7.2,74.4-6.1,116.2-2.3C-1575.9,648.8-1546.5,654.5-1533.3,671.9Z" fill="#fff" opacity="0.5"/>
              <path id="Path_4254"  d="M-1554,789.2c-15.1,9.7-32.9,14.1-50.5,17.9-25,5.4-50.2,10-75.5,14.1q-34.05,5.55-68.2,10c-11.3,1.5-22.8,2.9-33.2,7.4s-19.9,12.8-23,23.7" fill="none" stroke="#eaae68" stroke-linecap="round" stroke-linejoin="round" stroke-miterlimit="10" stroke-width="2.647"/>
              <path id="Path_4255"  d="M-1548.4,753.4c-8.4-9.9-23.6-13.5-35.7-16.1-18.6-3.9-37.9-5.1-56.9-4.8-42.9.6-86,9.3-123.5,30.7-25.2,14.4-42.5,41.3-45.6,70.2" fill="none" stroke="#eaae68" stroke-linecap="round" stroke-linejoin="round" stroke-miterlimit="10" stroke-width="2.647"/>
              <path id="Path_4256"  d="M-1773,714.8c18.1-12.7,40.2-18.1,62.1-21.5a404.956,404.956,0,0,1,96.5-3.4c22.5,1.9,45.9,6.2,63.4,20.5" fill="none" stroke="#eaae68" stroke-linecap="round" stroke-linejoin="round" stroke-miterlimit="10" stroke-width="2.647"/>
              <path id="Path_4257"  d="M-1535.5,790.4a114.222,114.222,0,0,1,43.4,60.1" fill="none" stroke="#eaae68" stroke-linecap="round" stroke-linejoin="round" stroke-miterlimit="10" stroke-width="2.647"/>
              <path id="Path_4258"  d="M-1479.7,834.7c-4.4-40-15-87.4-45.7-110" fill="none" stroke="#eaae68" stroke-linecap="round" stroke-linejoin="round" stroke-miterlimit="10" stroke-width="2.647"/>
              <path id="Path_4259"  d="M-1549.4,774a178.142,178.142,0,0,0-96-5.5c-33.9,7.6-64.9,25.1-98.5,34.2-14.8,4-31.1,6.9-41.9,17.8" fill="none" stroke="#f6cc82" stroke-linecap="round" stroke-linejoin="round" stroke-miterlimit="10" stroke-width="2.647"/>
              <path id="Path_4260"  d="M-1825.9,791.1c21.8-31.2,54.1-54.4,89.9-67.3s74.8-15.5,112.4-9.9" fill="none" stroke="#f6cc82" stroke-linecap="round" stroke-linejoin="round" stroke-miterlimit="10" stroke-width="2.647"/>
              <path id="Path_4261"  d="M-1529,761.3a118.48,118.48,0,0,1,33.2,42.7" fill="none" stroke="#f6cc82" stroke-linecap="round" stroke-linejoin="round" stroke-miterlimit="10" stroke-width="2.647"/>
              <path id="Path_4262"  d="M-1513.1,700.9a194.12,194.12,0,0,1,48.7,100.6" fill="none" stroke="#f6cc82" stroke-linecap="round" stroke-linejoin="round" stroke-miterlimit="10" stroke-width="2.647"/>
              <path id="Path_4263"  d="M-1538.6,692.6c-18.9-20.6-47.4-30.3-75.3-32s-55.7,3.7-83.2,9.1" fill="none" stroke="#f6cc82" stroke-linecap="round" stroke-linejoin="round" stroke-miterlimit="10" stroke-width="2.647"/>
              <path id="Path_4264"  d="M-1590.8,564.3a76.451,76.451,0,0,0-67.3-10.6c-16,5.2-30.6,16.5-36.7,32.2-5.9,15.2-3.4,32.2,0,48.1" fill="none" stroke="#ecbf76" stroke-linecap="round" stroke-linejoin="round" stroke-miterlimit="10" stroke-width="2.647"/>
              <path id="Path_4265"  d="M-1538.6,580.4c3.9-1.3,11.8,3.6,14.8,5.9,18,13.2,23.8,45.7,9.6,63.5-4.3,5.4-10.1,9.3-15.8,13.1" fill="none" stroke="#ecbf76" stroke-linecap="round" stroke-linejoin="round" stroke-miterlimit="10" stroke-width="2.647"/>
              <path id="Path_4266"  d="M-1503.1,690.8a125.222,125.222,0,0,1,45.9,65.4,154.476,154.476,0,0,1,.5,85.9" fill="none" stroke="#ecbf76" stroke-linecap="round" stroke-linejoin="round" stroke-miterlimit="10" stroke-width="5.294"/>
              <g id="Group_12382">
                <path id="Path_4267" d="M-1764,1571.4s3.7,1.2,10.1,3.3c3.2,1,7.1,2.3,11.5,3.7,2.2.7,4.6,1.5,7.1,2.3,2.5.6,5.2,1.3,8,2,5.6,1.4,11.6,2.9,18,4.4a78.838,78.838,0,0,0,9.9,2c3.4.6,6.9,1.2,10.4,1.8,7.1,1.2,14.4,2.7,21.9,3.1q11.25,1.05,22.8,2.1c7.7.1,15.3.3,22.9.4,7.5.4,14.9-.3,22.1-.7,3.6-.2,7.1-.4,10.6-.6a66.537,66.537,0,0,0,10.1-.9c6.5-.9,12.7-1.7,18.4-2.4,2.8-.4,5.6-.8,8.2-1.1,2.6-.5,5-1,7.3-1.5,4.6-.9,8.6-1.8,11.9-2.5,6.6-1.4,10.4-2.1,10.4-2.1s-3.7.9-10.3,2.6c-3.3.8-7.2,1.8-11.8,3-2.3.6-4.7,1.2-7.3,1.8-2.6.5-5.3.9-8.2,1.3-5.7.9-11.9,1.9-18.4,2.9-6.5,1.2-13.5,1.2-20.7,1.9-7.2.4-14.7,1.2-22.3.9l-23-.3c-7.7-.8-15.3-1.5-22.9-2.2-7.6-.5-14.9-2.1-22-3.3-7.1-1.4-14.1-2.2-20.4-4.1-6.4-1.7-12.4-3.4-18-4.9-2.8-.8-5.5-1.4-8-2.2-2.5-.9-4.8-1.8-7-2.6q-6.6-2.4-11.4-4.2C-1760.4,1572.7-1764,1571.4-1764,1571.4Z" fill="#710019"/>
              </g>
              <path id="Path_4268" d="M-1552.6,928.4c-9.5.4-24.7,4-22.5,14.6.7,3.7,4.2,5.8,7.4,6.9a34.629,34.629,0,0,0,28.3-2.4,16.325,16.325,0,0,0,5.5-4.6c6.9-10.2-7.2-13.8-14.8-14.4C-1549.9,928.4-1551.2,928.4-1552.6,928.4Z" fill="#eda59f"/>
              <path id="Path_4269" d="M-1734.7,928.3c11,.5,24.6,4.4,22.5,14.7-.7,3.7-4.2,5.8-7.4,6.9a34.662,34.662,0,0,1-28.3-2.4,16.325,16.325,0,0,1-5.5-4.6c-4.7-7,1.6-11.7,7.9-13.7A33.607,33.607,0,0,1-1734.7,928.3Z" fill="#eda59f"/>
            </g>
          </g>
        </g>
        <g id="Group_12400">
          <g id="Group_12386">
            <path id="Path_4270" d="M-884.8,1819.6h-704.3V1508.5l704.3-171.9Z" fill="none" stroke="#78828d" stroke-linecap="round" stroke-linejoin="round" stroke-miterlimit="10" stroke-width="18.126"/>
            <line id="Line_19"  y2="336" transform="translate(-1484.5 1483.6)" fill="none" stroke="#78828d" stroke-linecap="round" stroke-linejoin="round" stroke-miterlimit="10" stroke-width="5.571"/>
            <line id="Line_20"  y2="376.4" transform="translate(-1321.7 1443.2)" fill="none" stroke="#78828d" stroke-linecap="round" stroke-linejoin="round" stroke-miterlimit="10" stroke-width="5.571"/>
            <line id="Line_21"  y2="413.8" transform="translate(-1158.8 1405.8)" fill="none" stroke="#78828d" stroke-linecap="round" stroke-linejoin="round" stroke-miterlimit="10" stroke-width="5.571"/>
            <line id="Line_22"  y2="455.8" transform="translate(-996 1363.8)" fill="none" stroke="#78828d" stroke-linecap="round" stroke-linejoin="round" stroke-miterlimit="10" stroke-width="5.571"/>
            <line id="Line_23"  y1="132.3" x2="704.3" transform="translate(-1589.1 1485)" fill="none" stroke="#78828d" stroke-linecap="round" stroke-linejoin="round" stroke-miterlimit="10" stroke-width="5.571"/>
            <line id="Line_24"  y1="30.6" x2="696.4" transform="translate(-1589.1 1692.1)" fill="none" stroke="#78828d" stroke-linecap="round" stroke-linejoin="round" stroke-miterlimit="10" stroke-width="5.571"/>
          </g>
          <g id="Group_12388">
            <g id="Group_12387">
              <rect id="Rectangle_2385" width="291.8" height="206.6" transform="translate(-1505.981 1614.194) rotate(-0.263)" fill="#dfa775"/>
              <path id="Path_4271" d="M-1242.1,1716.2c8.8-33.3,28-103.3,28-103.3l-291.8,1.3.5,102.2C-1461.2,1715.9-1260.6,1716.8-1242.1,1716.2Z" fill="#f4f0ec"/>
              <rect id="Rectangle_2386" width="176.1" height="206.6" transform="translate(-1214.082 1612.918) rotate(-0.261)" fill="#d8996e"/>
              <path id="Path_4272" d="M-1037.6,1714l-.5-101.9-176.1.8s14.8,69.7,25.1,102.1C-1138.5,1715.2-1088.1,1714-1037.6,1714Z" fill="#f4f0ec"/>
              <path id="Path_4273" d="M-1542.7,1700.8l291.8-1.4,36.8-86.5-291.8,1.3Z" fill="#e9bd86"/>
              <path id="Path_4274" d="M-1000.5,1698.3l-176.1.8-37.5-86.2,176.1-.8Z" fill="#e4ad79"/>
            </g>
          </g>
          <g id="Group_12389">
            <path id="Path_4275" d="M-662.3,1819.6h-704.4V1508.5l704.4-171.9Z" fill="none" stroke="#78828d" stroke-linecap="round" stroke-linejoin="round" stroke-miterlimit="10" stroke-width="18.126"/>
            <line id="Line_25"  y2="336" transform="translate(-1262.1 1483.6)" fill="none" stroke="#78828d" stroke-linecap="round" stroke-linejoin="round" stroke-miterlimit="10" stroke-width="5.571"/>
            <line id="Line_26"  y2="376.4" transform="translate(-1099.2 1443.2)" fill="none" stroke="#78828d" stroke-linecap="round" stroke-linejoin="round" stroke-miterlimit="10" stroke-width="5.571"/>
            <line id="Line_27"  y2="413.8" transform="translate(-936.4 1405.8)" fill="none" stroke="#78828d" stroke-linecap="round" stroke-linejoin="round" stroke-miterlimit="10" stroke-width="5.571"/>
            <line id="Line_28"  y2="455.8" transform="translate(-773.5 1363.8)" fill="none" stroke="#78828d" stroke-linecap="round" stroke-linejoin="round" stroke-miterlimit="10" stroke-width="5.571"/>
            <line id="Line_29"  y1="132.3" x2="704.4" transform="translate(-1366.7 1485)" fill="none" stroke="#78828d" stroke-linecap="round" stroke-linejoin="round" stroke-miterlimit="10" stroke-width="5.571"/>
            <line id="Line_30"  y1="30.6" x2="696.4" transform="translate(-1366.7 1692.1)" fill="none" stroke="#78828d" stroke-linecap="round" stroke-linejoin="round" stroke-miterlimit="10" stroke-width="5.571"/>
          </g>
          <line id="Line_31"  x2="222.5" transform="translate(-884.8 1336.6)" fill="none" stroke="#78828d" stroke-linecap="round" stroke-linejoin="round" stroke-miterlimit="10" stroke-width="18.126"/>
          <line id="Line_32"  x2="222.4" transform="translate(-1589.1 1508.5)" fill="none" stroke="#78828d" stroke-linecap="round" stroke-linejoin="round" stroke-miterlimit="10" stroke-width="18.126"/>
          <path id="Path_4276" d="M-662.3,1997.9h-831.2c-22.8,0-41.4,16.9-41.4,37.5h0c0,20.6,18.6,37.5,41.4,37.5h831.2Z" fill="none" stroke="#78828d" stroke-linecap="round" stroke-linejoin="round" stroke-miterlimit="10" stroke-width="18.126"/>
          <line id="Line_33" y1="192.1" transform="translate(-662.3 1811.9)" fill="none" stroke="#78828d" stroke-linecap="round" stroke-linejoin="round" stroke-miterlimit="10" stroke-width="18.126"/>
          <g id="Group_12391">
            <path id="Path_4277" d="M-1480.1,2159.2c-1.9-28.1-3.5-56.1-4.9-84.2a4.515,4.515,0,0,1,.5-2.6,2.915,2.915,0,0,1,2.5-.9,579.847,579.847,0,0,0,73.2-.5c-15.2,30.2-33.3,63.9-59.8,87.5Z" fill="#78828d"/>
            <g id="Group_12390">
              <path id="Path_4278"  d="M-1387.7,2163.4a51.491,51.491,0,0,1-51.5,51.5,51.491,51.491,0,0,1-51.5-51.5,51.491,51.491,0,0,1,51.5-51.5A51.555,51.555,0,0,1-1387.7,2163.4Z" fill="#57667a"/>
              <path id="Path_4279"  d="M-1404.8,2163.4a34.356,34.356,0,0,1-34.3,34.3,34.291,34.291,0,0,1-34.3-34.3,34.356,34.356,0,0,1,34.3-34.3A34.356,34.356,0,0,1-1404.8,2163.4Z" fill="#37455c"/>
              <path id="Path_4280"  d="M-1426.9,2163.4a12.184,12.184,0,0,1-12.2,12.2,12.27,12.27,0,0,1-12.3-12.2,12.291,12.291,0,0,1,12.3-12.3A12.4,12.4,0,0,1-1426.9,2163.4Z" fill="#57667a"/>
            </g>
          </g>
          <g id="Group_12393">
            <path id="Path_4281" d="M-1318.4,2159.2c-1.9-28.1-3.5-56.1-4.9-84.2a3.358,3.358,0,0,1,.5-2.6,2.915,2.915,0,0,1,2.5-.9,579.847,579.847,0,0,0,73.2-.5c-15.2,30.2-33.3,63.9-59.8,87.5Z" fill="#78828d"/>
            <g id="Group_12392">
              <path id="Path_4282" d="M-1226,2163.4a51.491,51.491,0,0,1-51.5,51.5,51.427,51.427,0,0,1-51.5-51.5,51.491,51.491,0,0,1,51.5-51.5A51.491,51.491,0,0,1-1226,2163.4Z" fill="#57667a"/>
              <path id="Path_4283" d="M-1243.1,2163.4a34.356,34.356,0,0,1-34.3,34.3,34.356,34.356,0,0,1-34.3-34.3,34.356,34.356,0,0,1,34.3-34.3A34.356,34.356,0,0,1-1243.1,2163.4Z" fill="#37455c"/>
              <path id="Path_4284" d="M-1265.2,2163.4a12.206,12.206,0,0,1-12.3,12.2,12.27,12.27,0,0,1-12.3-12.2,12.291,12.291,0,0,1,12.3-12.3A12.421,12.421,0,0,1-1265.2,2163.4Z" fill="#57667a"/>
            </g>
          </g>
          <g id="Group_12395">
            <path id="Path_4285" d="M-881.5,2159.2c-1.9-28.1-3.5-56.1-4.9-84.2a3.843,3.843,0,0,1,.5-2.6,2.915,2.915,0,0,1,2.5-.9,579.848,579.848,0,0,0,73.2-.5c-15.2,30.2-33.3,63.9-59.8,87.5Z" fill="#78828d"/>
            <g id="Group_12394">
              <circle id="Ellipse_417" cx="51.5" cy="51.5" r="51.5" transform="translate(-892 2111.9)" fill="#57667a"/>
              <path id="Path_4286" d="M-806.2,2163.4a34.356,34.356,0,0,1-34.3,34.3,34.356,34.356,0,0,1-34.3-34.3,34.356,34.356,0,0,1,34.3-34.3A34.356,34.356,0,0,1-806.2,2163.4Z" fill="#37455c"/>
              <path id="Path_4287" d="M-828.3,2163.4a12.184,12.184,0,0,1-12.2,12.2,12.27,12.27,0,0,1-12.3-12.2,12.291,12.291,0,0,1,12.3-12.3A12.4,12.4,0,0,1-828.3,2163.4Z" fill="#57667a"/>
            </g>
          </g>
          <g id="Group_12397">
            <path id="Path_4288" d="M-739,2159.2c-1.9-28.1-3.5-56.1-4.9-84.2a4.515,4.515,0,0,1,.5-2.6,2.915,2.915,0,0,1,2.5-.9,579.848,579.848,0,0,0,73.2-.5c-15.2,30.2-33.3,63.9-59.8,87.5Z" fill="#78828d"/>
            <g id="Group_12396">
              <path id="Path_4289" d="M-646.6,2163.4a51.491,51.491,0,0,1-51.5,51.5,51.427,51.427,0,0,1-51.5-51.5,51.491,51.491,0,0,1,51.5-51.5A51.491,51.491,0,0,1-646.6,2163.4Z" fill="#57667a"/>
              <path id="Path_4290" d="M-663.7,2163.4a34.356,34.356,0,0,1-34.3,34.3,34.291,34.291,0,0,1-34.3-34.3,34.356,34.356,0,0,1,34.3-34.3A34.356,34.356,0,0,1-663.7,2163.4Z" fill="#37455c"/>
              <path id="Path_4291" d="M-685.8,2163.4a12.206,12.206,0,0,1-12.3,12.2,12.27,12.27,0,0,1-12.3-12.2,12.291,12.291,0,0,1,12.3-12.3A12.421,12.421,0,0,1-685.8,2163.4Z" fill="#57667a"/>
            </g>
          </g>
          <line id="Line_34" y1="63.6" transform="translate(-662.3 1273)" fill="none" stroke="#78828d" stroke-linecap="round" stroke-linejoin="round" stroke-miterlimit="10" stroke-width="18.126"/>
          <line id="Line_35" y1="63.6" transform="translate(-884.8 1273)" fill="none" stroke="#78828d" stroke-linecap="round" stroke-linejoin="round" stroke-miterlimit="10" stroke-width="18.126"/>
          <g id="Group_12398">
            <path id="Path_4292" d="M-589.3,1289.3H-918.8c-9.7,0-17.6-7.3-17.6-16.3s7.9-16.3,17.6-16.3h329.5c9.7,0,17.6,7.3,17.6,16.3S-579.5,1289.3-589.3,1289.3Z" fill="#f98409"/>
          </g>
          <path id="Path_4293" d="M-571.2,1273a16.3,16.3,0,0,1-16.3,16.3,16.3,16.3,0,0,1-16.3-16.3,16.3,16.3,0,0,1,16.3-16.3A16.3,16.3,0,0,1-571.2,1273Z" fill="#d45151"/>
          <path id="Path_4294" d="M-578.6,1273a8.92,8.92,0,0,1-8.9,8.9,8.92,8.92,0,0,1-8.9-8.9,8.92,8.92,0,0,1,8.9-8.9A8.92,8.92,0,0,1-578.6,1273Z" fill="#b8c5d5"/>
          <g id="Group_12399">
            <line id="Line_36" x2="222.4" transform="translate(-1589.1 1617.3)" fill="none" stroke="#78828d" stroke-linecap="round" stroke-linejoin="round" stroke-miterlimit="10" stroke-width="5.571"/>
            <line id="Line_37" x2="222.4" transform="translate(-1589.1 1726)" fill="none" stroke="#78828d" stroke-linecap="round" stroke-linejoin="round" stroke-miterlimit="10" stroke-width="5.571"/>
          </g>
        </g>
        <g id="Group_12404">
          <path id="Path_4295" d="M-790.1,563.8c0,131.7-144,238.5-321.6,238.5s-321.6-106.8-321.6-238.5,144-238.5,321.6-238.5S-790.1,432.1-790.1,563.8Z" fill="#d8d8d8"/>
          <g id="Group_12403">
            <path id="Path_4296"  d="M-985.1,390.7l-.5,12.3-1.6,36.5-.1,2.2-.6,14.6-.9,21.8-1.5,33.6-1.1,26.5-3.4,80.1-.6,13-3,70.7h-229.2l-3-70.7-.5-12.1-3.3-76.2-.5-11.8-.6-14.3-.3-7.2-2.9-68-1.7-38.7-.5-12.3Z" fill="#dfa775"/>
            <path id="Path_4297"  d="M-991.4,538.2l-3.4,80.1-.6,13h-5.4l-5.2-66.5-214.4-9.5v76h-10.2l-.5-12.1-3.3-76.2c29.6-1.3,121.8-4.2,154.4-4.8Z" fill="#f4eae8"/>
            <path id="Path_4298"  d="M-987.3,441.7l-.6,14.6-.9,21.8-225.4-18.9v72h-20.7l-.6-14.3-.3-7.2-2.9-68Z" fill="#f4eae8"/>
            <rect id="Rectangle_2387"  width="265.2" height="106.3" transform="translate(-1245.6 630.6)" fill="#dfa775"/>
            <rect id="Rectangle_2388"  width="265.2" height="17.9" transform="translate(-1245.6 630.6)" fill="#dcf2fd" opacity="0.2"/>
            <rect id="Rectangle_2389"  width="270.7" height="12.5" transform="translate(-1248.3 436.8)" fill="#d1825f"/>
            <rect id="Rectangle_2390"  width="94.6" height="67" transform="translate(-1224.3 656.1)" fill="none" stroke="#d4996d" stroke-linecap="round" stroke-linejoin="round" stroke-miterlimit="10" stroke-width="1.997"/>
            <rect id="Rectangle_2391"  width="94.7" height="67" transform="translate(-1103.4 656.1)" fill="none" stroke="#d4996d" stroke-linecap="round" stroke-linejoin="round" stroke-miterlimit="10" stroke-width="1.997"/>
            <rect id="Rectangle_2392"  width="270.7" height="12.5" transform="translate(-1248.3 532.2)" fill="#d1825f"/>
            <g id="Group_12402">
              <path id="Path_4299" d="M-938.3,559.2l-123.2-30.8a6.635,6.635,0,0,1-4.8-8l16.6-66.5a6.635,6.635,0,0,1,8-4.8l123.2,30.8a6.635,6.635,0,0,1,4.8,8l-16.6,66.5A6.588,6.588,0,0,1-938.3,559.2Z" fill="#fff"/>
              <path id="Path_4300" d="M-941.8,554.2l-114.3-28.5a6.046,6.046,0,0,1-4.4-7.4l14.9-59.8a6.046,6.046,0,0,1,7.4-4.4l114.3,28.5a6.046,6.046,0,0,1,4.4,7.4l-14.9,59.8A6.046,6.046,0,0,1-941.8,554.2Z" fill="#940f7c"/>
              <rect id="Rectangle_2393" width="11.5" height="80.4" transform="translate(-1005.357 542.407) rotate(14.017)" fill="#fff"/>
              <path id="Path_4301" d="M-937.6,530c-6.6,7.1-15.3,8.9-24.8,8.7-11.4-.2-22.7-2.2-33.8-4.7-11.6-2.6-23-5.8-34.5-8.5-9.9-2.3-19.8-4.5-29.7-7.1a6.066,6.066,0,0,0,4.4,7.3l114.3,28.5a6.171,6.171,0,0,0,7.4-4.4l10.1-40.4C-928,516.7-931.9,524-937.6,530Z" fill="#eddeda"/>
            </g>
            <rect id="Rectangle_2394" width="265.2" height="12.5" transform="translate(-1245.6 618.2)" fill="#d1825f"/>
          </g>
          <path id="Path_4309" d="M-1322.5,713.1l-83.1,153.8,169.3-92.3" fill="#d8d8d8"/>
        </g>
      </g>
    </g>
  </g>
</svg>
