<svg xmlns="http://www.w3.org/2000/svg" width="572.309" height="557.229" viewBox="0 0 572.309 557.229">
  <g id="shopping-cart_3_"  transform="translate(7.5 7.5)">
    <g id="Group_12922"  transform="translate(0 0)">
      <g id="Group_12921" >
        <path id="Path_5584" d="M154.818,350.322a58.165,58.165,0,1,0,58.165,58.165A58.165,58.165,0,0,0,154.818,350.322Zm0,90.481a32.314,32.314,0,1,1,32.313-32.316A32.315,32.315,0,0,1,154.818,440.8Z" transform="translate(22.908 75.576)" fill="#26ae60" stroke="#26ae60" stroke-width="15"/>
        <path id="Path_5585" d="M353.348,350.322a58.165,58.165,0,1,0,58.165,58.165A58.165,58.165,0,0,0,353.348,350.322Zm0,90.481a32.314,32.314,0,1,1,32.313-32.316A32.315,32.315,0,0,1,353.348,440.8Z" transform="translate(69.964 75.576)" fill="#26ae60" stroke="#26ae60" stroke-width="15"/>
        <path id="Path_5586" d="M554.507,92.63a16.16,16.16,0,0,0-10.34-5.171L123.44,81.643,111.807,46.1A59.459,59.459,0,0,0,56.226,6.028h-43.3a12.926,12.926,0,1,0,0,25.851h43.3A33.609,33.609,0,0,1,87.248,54.5l82.077,247.525-6.462,14.864a62.041,62.041,0,0,0,5.816,56.226,60.1,60.1,0,0,0,48.471,27.144h251.4a12.926,12.926,0,0,0,0-25.851H217.15A32.962,32.962,0,0,1,190.006,358.9a35.543,35.543,0,0,1-3.231-31.022l5.171-11.633L464.029,287.8a71.091,71.091,0,0,0,61.4-54.288l31.022-129.9A10.987,10.987,0,0,0,554.507,92.63ZM500.221,227.7A43.947,43.947,0,0,1,460.8,261.955l-268.852,27.79-60.1-182.25,396.169,5.816Z" transform="translate(0 -6.028)" fill="#26ae60" stroke="#26ae60" stroke-width="15"/>
      </g>
    </g>
  </g>
</svg>
