<svg xmlns="http://www.w3.org/2000/svg" width="145.821" height="145.836" viewBox="0 0 145.821 145.836">
  <path id="home_11_" d="M142.4,63.431a.106.106,0,0,1-.011-.011L82.9,3.933a13.424,13.424,0,0,0-18.987,0L4.459,63.39l-.06.061a13.42,13.42,0,0,0,8.933,22.874c.138.013.276.02.415.02h2.37v43.778a15.731,15.731,0,0,0,15.714,15.713H55.1a4.273,4.273,0,0,0,4.273-4.273V107.24a7.177,7.177,0,0,1,7.17-7.169H80.275a7.176,7.176,0,0,1,7.169,7.169v34.323a4.273,4.273,0,0,0,4.273,4.273H114.99A15.731,15.731,0,0,0,130.7,130.122V86.344h2.2a13.428,13.428,0,0,0,9.5-22.914Zm-6.051,12.938A4.851,4.851,0,0,1,132.9,77.8h-6.471a4.272,4.272,0,0,0-4.273,4.273v48.05a7.176,7.176,0,0,1-7.169,7.168h-19V107.24A15.732,15.732,0,0,0,80.275,91.526H66.547A15.732,15.732,0,0,0,50.832,107.24v30.05h-19a7.177,7.177,0,0,1-7.169-7.168V82.072A4.272,4.272,0,0,0,20.389,77.8h-6.36c-.067,0-.132-.008-.2-.009a4.875,4.875,0,0,1-3.361-8.326s0,0,0,0l0,0L69.961,9.974a4.878,4.878,0,0,1,6.9,0l59.474,59.473.028.027a4.891,4.891,0,0,1-.009,6.9Zm0,0" transform="translate(-0.5 0.001)" fill="#FF9E9E9E"/>
</svg>
