<?xml version="1.0" encoding="utf-8"?>
<!-- Generator: Adobe Illustrator 24.1.1, SVG Export Plug-In . SVG Version: 6.00 Build 0)  -->
<svg version="1.1" id="Layer_1" xmlns="http://www.w3.org/2000/svg" x="0px" y="0px" viewBox="0 0 19.2 19.2" style="enable-background:new 0 0 19.2 19.2;" xml:space="preserve">
<g>
	<path style="fill:#707070;" d="M1.6,6.39c0-1.06,0-2.11,0-3.17c0-0.69,0.41-1.29,1.05-1.53c0.19-0.07,0.38-0.1,0.58-0.1
		c2.11,0,4.22,0,6.33,0c0.79,0,1.43,0.51,1.6,1.28c0.03,0.12,0.03,0.24,0.03,0.37c0,1.56,0,3.12,0,4.68C11.19,7.98,11.2,8,11.26,8
		c1.56,0,3.12,0,4.68,0c0.48,0,0.89,0.16,1.22,0.52c0.29,0.31,0.43,0.68,0.43,1.09c0,2.12,0,4.25,0,6.37c0,0.71-0.44,1.31-1.11,1.53
		c-0.16,0.05-0.33,0.08-0.5,0.08c-2.12,0-4.25,0-6.37,0c-0.8,0-1.46-0.57-1.59-1.35C8,16.14,8,16.04,8,15.94c0-1.56,0-3.12,0-4.68
		c0-0.06-0.01-0.07-0.07-0.07c-1.57,0-3.14,0-4.71,0c-0.75,0-1.42-0.52-1.58-1.25C1.61,9.81,1.6,9.68,1.6,9.55
		C1.6,8.5,1.6,7.45,1.6,6.39z M3.2,9.59c0.01,0,0.01,0,0.02,0c0.47,0,0.93,0.01,1.4,0.01c0.04,0,0.05-0.02,0.06-0.05
		c0.19-0.5,0.37-1,0.56-1.51C5.25,8.01,5.27,8,5.32,8c0.72,0,1.43,0,2.15,0c0.04,0,0.06,0.01,0.08,0.05
		c0.07,0.21,0.15,0.41,0.23,0.62C7.85,8.88,7.93,9.1,8.02,9.32C8.02,9.31,8.03,9.3,8.03,9.3c0-0.01,0-0.02,0.01-0.02
		c0.12-0.53,0.43-0.91,0.92-1.14C9,8.11,9,8.1,8.98,8.06C8.34,6.45,7.7,4.85,7.06,3.25C7.05,3.21,7.03,3.2,6.99,3.2
		c-0.39,0-0.78,0-1.17,0c-0.06,0-0.09,0.02-0.11,0.07C4.93,5.23,4.15,7.19,3.37,9.15C3.32,9.3,3.26,9.44,3.2,9.59z M13.71,10.56
		c0-0.1,0-0.18,0-0.27c0-0.03-0.01-0.04-0.03-0.06c-0.07-0.09-0.14-0.17-0.22-0.24c-0.24-0.22-0.51-0.38-0.85-0.39
		c-0.43-0.01-0.78,0.17-1.05,0.5c-0.27,0.33-0.4,0.71-0.42,1.13c-0.02,0.3,0.05,0.58,0.23,0.83c0.06,0.09,0.12,0.18,0.19,0.27
		c0.02,0.03,0.03,0.04-0.01,0.06c-0.12,0.07-0.23,0.14-0.34,0.23c-0.34,0.27-0.61,0.6-0.74,1.02c-0.19,0.61-0.08,1.15,0.38,1.61
		c0.28,0.29,0.64,0.46,1.02,0.58c0.46,0.15,0.94,0.17,1.42,0.12c0.55-0.06,1.08-0.22,1.55-0.51c0.12-0.07,0.23-0.15,0.34-0.25
		c-0.01,0-0.02,0-0.02,0c-0.25,0.01-0.5,0-0.75-0.02c-0.43-0.04-0.86-0.1-1.28-0.24c-0.34-0.11-0.66-0.26-0.92-0.51
		c-0.16-0.15-0.3-0.32-0.35-0.53c-0.05-0.19-0.03-0.39,0.03-0.57c0.1-0.36,0.3-0.64,0.68-0.75c0.36-0.11,0.72-0.11,1.08,0.04
		c0.11,0.05,0.21,0.11,0.31,0.19c0.15-0.54,0.3-1.07,0.45-1.6c-0.03,0.01-0.04,0.01-0.06,0.02c-0.2,0.08-0.41,0.14-0.62,0.19
		c-0.33,0.07-0.66,0.12-0.99,0.02c-0.17-0.05-0.33-0.11-0.46-0.23c-0.08-0.08-0.12-0.17-0.12-0.28c0.02-0.33,0.35-0.63,0.68-0.63
		C13.15,10.27,13.45,10.35,13.71,10.56z"/>
	<path style="fill:#707070;" d="M6.4,4.8c0.27,0.81,0.53,1.6,0.8,2.4c-0.53,0-1.06,0-1.6,0C5.86,6.4,6.13,5.6,6.4,4.8z"/>
</g>
</svg>
