<svg xmlns="http://www.w3.org/2000/svg" width="327" height="437.364" viewBox="0 0 327 437.364">
  <g id="login" transform="translate(-85.3 -27.336)">
    <g id="Floor">
      <g id="Group_12407" >
        <path id="Path_4310" d="M412.3,464.4c0,.2-73.2.3-163.5.3s-163.5-.1-163.5-.3,73.2-.3,163.5-.3S412.3,464.2,412.3,464.4Z" fill="#263238"/>
      </g>
    </g>
    <g id="Plant">
      <g id="Group_12425" >
        <g id="Group_12409" >
          <g id="Group_12408" >
            <path id="Path_4311" d="M340.9,335.3c-16.3-11.4-20-32.5-19.3-51.5.1-3.2-.2-6.5,1.3-9.3s5-4.7,7.9-3.3c2.4,1.1,3.4,3.8,4.7,6.1a19.386,19.386,0,0,0,7.4,7.1c2,1,4.5,1.7,6.5.6,2.7-1.5,3.1-5.3,3-8.4,0-5.9-.1-11.8-.1-17.6,0-3.2,0-6.4,1-9.4s3.1-5.8,6.1-6.6,6.7.9,7.3,4a25.415,25.415,0,0,1,.1,3.9c.1,1.3.7,2.8,1.9,3.1,1.3.4,2.5-.5,3.5-1.4,3.3-3.2,5.5-7.3,7.5-11.4,2.1-4.1,4.1-8.3,7-11.7,3-3.5,7-6.2,11.6-6.5,4.5-.3,9.3,2.5,10.5,7,1.1,4.4-1.4,9-4.3,12.6a69.77,69.77,0,0,1-14.7,14,6.239,6.239,0,0,0-2.5,2.6c-.7,2.1,1.3,4.2,3.4,4.9,2.3.8,4.9.5,7.4.8s5.1,1.4,6.1,3.7c1.3,3.2-1.4,6.6-4.1,8.8a62.205,62.205,0,0,1-17.8,10.3c-2.3.8-4.8,1.6-6.6,3.2-1.9,1.6-3,4.5-1.9,6.7s4,2.9,6.5,2.5c2.4-.4,4.6-1.8,6.9-2.6,4.3-1.6,9.9-1.3,12.7,2.4a10.119,10.119,0,0,1,1.1,8.8,22.579,22.579,0,0,1-4.8,7.8,60.659,60.659,0,0,1-25.9,18.2c-10.1,3.3-19.4,4.3-29.4.6" fill="#940f7c"/>
          </g>
        </g>
        <g id="Group_12412" >
          <g id="Group_12411" >
            <g id="Group_12410" >
              <path id="Path_4312" d="M404.2,225.6l-.3.3a8.178,8.178,0,0,1-.9.8c-.8.7-2,1.8-3.6,3.2a102.446,102.446,0,0,0-12,13c-2.3,2.9-4.8,6.2-7.3,9.8s-5.2,7.5-7.9,11.6a132.9,132.9,0,0,0-7.8,13.5c-1.2,2.4-2.3,4.9-3.4,7.5l-3.3,7.8a286.548,286.548,0,0,0-11.2,30.3,149.112,149.112,0,0,0-5.3,25.9,99.394,99.394,0,0,0-.3,17.8c.2,2.1.3,3.7.5,4.8a6.15,6.15,0,0,1,.1,1.3v.4a1.577,1.577,0,0,0-.1-.4,7.385,7.385,0,0,0-.2-1.2q-.3-1.65-.6-4.8a97,97,0,0,1,.1-17.9,133.926,133.926,0,0,1,5.2-26,279.893,279.893,0,0,1,11.2-30.4l3.3-7.8c1.1-2.6,2.2-5.1,3.4-7.5a132.9,132.9,0,0,1,7.8-13.5c2.7-4.2,5.4-8,8-11.6s5-6.9,7.4-9.8a114.835,114.835,0,0,1,12.2-12.9c1.6-1.4,2.8-2.5,3.6-3.2.4-.3.7-.6,1-.8A1.094,1.094,0,0,0,404.2,225.6Z" fill="#fff"/>
            </g>
          </g>
        </g>
        <g id="Group_12415" >
          <g id="Group_12414" >
            <g id="Group_12413" >
              <path id="Path_4313" d="M364,277.6s-.1-.5-.3-1.3c-.2-.9-.4-2.1-.6-3.7-.4-3.1-.9-7.5-1.4-12.3s-1-9.1-1.5-12.3c-.2-1.6-.5-2.8-.6-3.7a7.208,7.208,0,0,1-.2-1.4,11.106,11.106,0,0,1,.4,1.3c.2.9.5,2.1.8,3.7.6,3.1,1.2,7.5,1.7,12.3.5,4.7.9,9,1.2,12.3.2,1.5.3,2.7.4,3.7C364,277.1,364,277.6,364,277.6Z" fill="#fff"/>
            </g>
          </g>
        </g>
        <g id="Group_12418" >
          <g id="Group_12417" >
            <g id="Group_12416" >
              <path id="Path_4314" d="M404.5,270.1s-.6.1-1.6.2-2.5.2-4.4.4c-3.7.4-8.8,1.1-14.4,2.2s-10.6,2.2-14.2,3.2c-1.8.5-3.3.9-4.3,1.2a14.5,14.5,0,0,1-1.6.4,7.215,7.215,0,0,1,1.5-.6c1-.3,2.4-.8,4.2-1.3,3.6-1.1,8.6-2.3,14.2-3.4a132.721,132.721,0,0,1,14.5-2,39.745,39.745,0,0,1,4.4-.2C403.9,270,404.5,270,404.5,270.1Z" fill="#fff"/>
            </g>
          </g>
        </g>
        <g id="Group_12421" >
          <g id="Group_12420" >
            <g id="Group_12419" >
              <path id="Path_4315" d="M346.3,322.7a5.2,5.2,0,0,0-.3-.5c-.2-.4-.4-.9-.7-1.5-.6-1.3-1.4-3.1-2.4-5.5-2-4.6-4.5-11.1-7.1-18.3-2.7-7.2-5.1-13.7-7-18.4-.9-2.3-1.7-4.1-2.2-5.5a11.639,11.639,0,0,0-.6-1.5,4.206,4.206,0,0,0-.2-.5,5.2,5.2,0,0,0,.3.5c.2.4.4.9.7,1.5.6,1.3,1.4,3.1,2.4,5.5,2,4.6,4.5,11.1,7.1,18.4,2.7,7.2,5.1,13.7,7,18.4.9,2.3,1.7,4.1,2.2,5.5a11.639,11.639,0,0,0,.6,1.5C346.3,322.5,346.4,322.7,346.3,322.7Z" fill="#fff"/>
            </g>
          </g>
        </g>
        <g id="Group_12424" >
          <g id="Group_12423" >
            <g id="Group_12422" >
              <path id="Path_4316" d="M400.2,305.3a4.206,4.206,0,0,1-.5.2c-.4.1-.9.3-1.6.5-1.4.5-3.4,1.1-5.8,1.9-4.9,1.6-11.6,3.8-19,6.3s-14.1,4.7-19,6.2c-2.5.7-4.4,1.3-5.8,1.7-.6.2-1.2.3-1.6.4a2.8,2.8,0,0,1-.6.1,4.206,4.206,0,0,1,.5-.2c.4-.1.9-.3,1.6-.5,1.4-.5,3.4-1.1,5.8-1.9,4.9-1.6,11.6-3.8,19-6.3s14.1-4.7,19-6.2c2.5-.7,4.4-1.3,5.8-1.7.6-.2,1.2-.3,1.6-.4A2.8,2.8,0,0,1,400.2,305.3Z" fill="#fff"/>
            </g>
          </g>
        </g>
      </g>
    </g>
    <g id="Padlock">
      <g id="Group_12435" >
        <g id="Group_12427" >
          <g id="Group_12426" >
            <path id="Path_4317" d="M378.2,49.5l-5.4,1.9-2.3-7.1c-4.3-13.1-18-20.1-30.5-15.6s-19.2,18.8-14.9,31.9l2.3,7.1-5.5,1.9a8.726,8.726,0,0,0-5.1,10.8l15.1,46.2a8.2,8.2,0,0,0,10.4,5.4l56.3-20.1a8.62,8.62,0,0,0,5.1-10.9L388.6,54.8A8.141,8.141,0,0,0,378.2,49.5ZM335.3,57c-2.3-7.2,1.3-15,8.2-17.5s14.3,1.4,16.7,8.6l2.3,7.1-24.9,8.9ZM367,97.9l3.9,11.8a.931.931,0,0,1-.6,1.2l-5.4,1.9a.955.955,0,0,1-1.1-.6l-3.9-11.8a10.407,10.407,0,0,1-9.5-7.4,11.128,11.128,0,0,1,6.5-13.9,10.347,10.347,0,0,1,13.3,6.8A11.438,11.438,0,0,1,367,97.9Z" fill="#940f7c"/>
          </g>
        </g>
        <g id="Group_12428" >
          <path id="Path_4318" d="M372.5,51.4c.1.1-10.1,3.9-22.6,8.5-12.5,4.5-22.7,8.1-22.8,7.9-.1-.1,10.1-3.9,22.6-8.5C362.3,54.8,372.5,51.2,372.5,51.4Z" fill="#fff"/>
        </g>
        <g id="Group_12430" >
          <g id="Group_12429" >
            <path id="Path_4319" d="M384.5,53.3a.438.438,0,0,1,.1.3,6.885,6.885,0,0,1,.3.8c.3.8.6,1.8,1.1,3.2,1,2.8,2.3,6.8,4,11.8s3.7,10.9,5.9,17.5c1.1,3.3,2.3,6.7,3.5,10.4a15.986,15.986,0,0,1,.8,5.8,7.543,7.543,0,0,1-.9,2.9,7.4,7.4,0,0,1-2,2.3,16.123,16.123,0,0,1-5.4,2.7c-1.8.7-3.7,1.3-5.4,2-3.6,1.3-7,2.5-10.3,3.7-6.5,2.3-12.4,4.4-17.4,6.2-4.9,1.7-8.9,3.1-11.8,4.1-1.4.5-2.4.8-3.2,1.1a6.889,6.889,0,0,0-.8.3.774.774,0,0,1-.3.1.438.438,0,0,1,.3-.1,6.891,6.891,0,0,1,.8-.3c.8-.3,1.8-.7,3.2-1.2,2.8-1,6.8-2.5,11.7-4.3q7.5-2.7,17.4-6.3c3.3-1.2,6.7-2.4,10.3-3.7,1.8-.6,3.6-1.3,5.4-2A19.488,19.488,0,0,0,397,108a6.736,6.736,0,0,0,1.9-2.2,8.422,8.422,0,0,0,.8-2.7,13.384,13.384,0,0,0-.8-5.6c-1.1-3.6-2.3-7.1-3.4-10.4-2.2-6.6-4.2-12.5-5.8-17.5s-3-9-3.9-11.8c-.4-1.4-.8-2.5-1-3.2a6.9,6.9,0,0,0-.3-.8C384.5,53.4,384.5,53.3,384.5,53.3Z" fill="#fff"/>
          </g>
        </g>
        <g id="Group_12432" >
          <g id="Group_12431" >
            <path id="Path_4320" d="M354.8,38.8s-.6-.3-1.6-.7a12.38,12.38,0,0,0-4.6-.9,14.621,14.621,0,0,0-6.8,1.3,14.974,14.974,0,0,0-8.9,13.4,23.2,23.2,0,0,0,1.1,6.9c.6,1.9,1.1,3.5,1.5,4.5.4,1.1.6,1.7.5,1.7a10.246,10.246,0,0,1-.7-1.6,45.274,45.274,0,0,1-1.7-4.5,23.157,23.157,0,0,1-1.2-7,14.6,14.6,0,0,1,2.5-8.3,15.192,15.192,0,0,1,6.7-5.5,15.435,15.435,0,0,1,7-1.2,12.983,12.983,0,0,1,4.7,1.1c.5.3.9.5,1.1.6C354.7,38.6,354.8,38.7,354.8,38.8Z" fill="#fff"/>
          </g>
        </g>
        <g id="Group_12434" >
          <g id="Group_12433" >
            <path id="Path_4321" d="M355.3,80a5.193,5.193,0,0,0,.5-.3,9.12,9.12,0,0,1,1.6-.6,14.563,14.563,0,0,1,2.7-.5,8.436,8.436,0,0,1,3.7.6c2.7.9,5.2,3.7,6.4,7.3a10.548,10.548,0,0,1,0,6.1,14,14,0,0,1-3.4,5.7l.1-.3c1.4,3.8,2.9,8,4.5,12.4l.1.3-.3.1c-.8.3-1.6.5-2.4.8-1.8.6-3.5,1.2-5.2,1.8l-.3.1-.1-.3c-1.4-4.4-3-8.5-4.2-12.4l.2.2a10.378,10.378,0,0,1-5.6-2.2,12.485,12.485,0,0,1-3.5-4.2,9.24,9.24,0,0,1-1.1-4.7,10.719,10.719,0,0,1,.9-4.1,10.566,10.566,0,0,1,3.5-4.6,6.093,6.093,0,0,1,1.9-1.2,8.311,8.311,0,0,0-1.7,1.1,12.1,12.1,0,0,0-3.4,4.6,10.169,10.169,0,0,0,.3,8.5,13.073,13.073,0,0,0,3.4,4.1,10.259,10.259,0,0,0,5.4,2.1h.2v.2c1.2,3.9,2.8,8,4.2,12.4l-.3-.2c1.7-.6,3.5-1.2,5.2-1.8a22.5,22.5,0,0,1,2.4-.8l-.2.4c-1.6-4.4-3.1-8.5-4.5-12.4l-.1-.2.1-.1a13.091,13.091,0,0,0,3.3-5.5,10.394,10.394,0,0,0,0-5.8c-1.2-3.5-3.5-6.2-6.1-7.2a10.26,10.26,0,0,0-6.3-.2A12.4,12.4,0,0,1,355.3,80Z" fill="#263238"/>
          </g>
        </g>
      </g>
    </g>
    <g id="Device">
      <g id="Group_12480" >
        <g id="Group_12443" >
          <g id="Group_12436" >
            <path id="Path_4322" d="M322.7,384.5,217.4,384a22.9,22.9,0,0,1-22.8-23l1.1-264a22.9,22.9,0,0,1,23-22.8l105.3.4a22.9,22.9,0,0,1,22.8,23l-1.1,264A22.918,22.918,0,0,1,322.7,384.5Z" fill="#455a64"/>
          </g>
          <g id="Group_12437" >
            <path id="Path_4323" d="M323.9,83.7l-20.4-.1a5.125,5.125,0,0,0-5,5.2v3.7a5.061,5.061,0,0,1-5,5.2l-39.8-.2a5.043,5.043,0,0,1-4.9-5.2V88.6a5.043,5.043,0,0,0-4.9-5.2h-7.2l-17.9-.1a16,16,0,0,0-16.1,16L201.6,357a16,16,0,0,0,16,16.1l105.1.5a16,16,0,0,0,16.1-16l1.1-257.7A16.027,16.027,0,0,0,323.9,83.7Z" fill="#fff"/>
          </g>
          <g id="Group_12442" >
            <g id="Group_12441" >
              <g id="Group_12440" >
                <g id="Group_12438" >
                  <path id="Path_4324" d="M309.7,339.1l-78.2-.4c-.8,0-1.5-.9-1.5-2l.1-20.4c0-1.1.7-2,1.5-2l78.2.4c.8,0,1.5.9,1.5,2l-.1,20.4C311.2,338.3,310.5,339.1,309.7,339.1Z" fill="#940f7c"/>
                </g>
                <g id="Group_12439" >
                  <path id="Path_4325" d="M251.9,331a1.765,1.765,0,0,1-.9-.8,2.133,2.133,0,0,1-.3-1.2h1.5a.908.908,0,0,0,.3.7.984.984,0,0,0,.8.3,1.884,1.884,0,0,0,.8-.2.864.864,0,0,0,.3-.6.764.764,0,0,0-.2-.5.85.85,0,0,0-.5-.3,6.884,6.884,0,0,0-.8-.3,6.6,6.6,0,0,1-1.1-.4,1.344,1.344,0,0,1-.7-.6,1.8,1.8,0,0,1-.3-1.1,2.016,2.016,0,0,1,.3-1.1,1.6,1.6,0,0,1,.9-.7,2.986,2.986,0,0,1,3.1.3,1.8,1.8,0,0,1,.7,1.5h-1.6a.6.6,0,0,0-.3-.6.984.984,0,0,0-.8-.3,1.445,1.445,0,0,0-.7.2c-.2.1-.2.4-.3.6a.764.764,0,0,0,.2.5,2.185,2.185,0,0,0,.5.3,3.384,3.384,0,0,0,.8.3,6.6,6.6,0,0,1,1.1.4c.3.1.5.4.7.6a2.167,2.167,0,0,1,0,2.2,2.361,2.361,0,0,1-.9.8,2.967,2.967,0,0,1-2.6,0Z" fill="#fff"/>
                  <path id="Path_4326" d="M258.3,323.9v7.4h-1.4v-7.4Z" fill="#fff"/>
                  <path id="Path_4327" d="M265.7,331.3h-1.4l-3.2-5.1v5.1h-1.4v-7.4h1.4l3.2,5.1v-5.1h1.4Z" fill="#fff"/>
                  <path id="Path_4328" d="M272,326.1a2.337,2.337,0,0,0-.7-.7,1.644,1.644,0,0,0-1-.2,2.016,2.016,0,0,0-1.1.3,3.044,3.044,0,0,0-.8.8,2.967,2.967,0,0,0,0,2.6,1.562,1.562,0,0,0,.8.8,2.016,2.016,0,0,0,1.1.3,1.844,1.844,0,0,0,1.3-.4,2.4,2.4,0,0,0,.7-1.2h-2.4v-1.1h3.8v1.3a3.506,3.506,0,0,1-.6,1.4,3.6,3.6,0,0,1-2.8,1.4,3.453,3.453,0,0,1-1.8-.5,4.036,4.036,0,0,1-1.3-1.3,4.136,4.136,0,0,1-.5-1.9,3.83,3.83,0,0,1,.5-1.9,2.735,2.735,0,0,1,1.3-1.3,4.075,4.075,0,0,1,1.8-.5,3.7,3.7,0,0,1,2.1.6,2.982,2.982,0,0,1,1.2,1.7Z" fill="#fff"/>
                  <path id="Path_4329" d="M278.7,324v4.6a1.246,1.246,0,0,0,.4,1.1,1.16,1.16,0,0,0,1,.4,1.366,1.366,0,0,0,1.1-.4,1.82,1.82,0,0,0,.4-1.1V324H283v4.5a2.726,2.726,0,0,1-.4,1.6,3.023,3.023,0,0,1-3.8,1,1.95,1.95,0,0,1-1-1,3.768,3.768,0,0,1-.4-1.6V324Z" fill="#fff"/>
                  <path id="Path_4330" d="M289.2,327.4a3.044,3.044,0,0,1-.8.8,3.194,3.194,0,0,1-1.4.3h-1.2v2.8h-1.4v-7.4H287a3.194,3.194,0,0,1,1.4.3,2.361,2.361,0,0,1,.9.8,2.133,2.133,0,0,1,.3,1.2A3.374,3.374,0,0,1,289.2,327.4Zm-1.5-.3a.984.984,0,0,0,.3-.8,1,1,0,0,0-1.1-1.1h-1.1v2.1h1.1A1.078,1.078,0,0,0,287.7,327.1Z" fill="#fff"/>
                </g>
              </g>
            </g>
          </g>
        </g>
        <g id="Group_12479" >
          <g id="Group_12444" >
            <rect id="Rectangle_2395" width="27.1" height="5" transform="translate(220.013 159.24) rotate(0.265)" fill="#e8505b"/>
            <rect id="Rectangle_2396" width="27.1" height="5" transform="translate(220.013 159.24) rotate(0.265)" fill="#940f7c"/>
          </g>
          <g id="Group_12446" >
            <g id="Group_12445" >
              <path id="Path_4331" d="M326.7,189.9a2.8,2.8,0,0,0,.6-.1,1.461,1.461,0,0,0,1-1.4V174.3a2.232,2.232,0,0,0-.3-1.4,1.563,1.563,0,0,0-1.2-.6H309.9c-22.6-.1-53.8-.2-88.2-.3a1.425,1.425,0,0,0-1.2.6,2.092,2.092,0,0,0-.3,1.4v14.1a1.589,1.589,0,0,0,.8,1,1.483,1.483,0,0,0,.7.1h5.4c8.1,0,16,.1,23.4.1,14.9.1,28.4.2,39.6.2,11.3.1,20.4.2,26.7.2,3.1,0,5.6.1,7.3.1H326a4.184,4.184,0,0,0,.7.1H290.2c-11.3,0-24.7-.1-39.6-.1-7.5,0-15.3-.1-23.4-.1h-5.4a1.486,1.486,0,0,1-.9-.2,1.63,1.63,0,0,1-1.1-1.3,2.485,2.485,0,0,1-.1-.8V173.2a1.8,1.8,0,0,1,.4-.9,2.088,2.088,0,0,1,1.6-.8c34.4.2,65.6.4,88.2.5,5.6,0,10.7.1,15.2.1h1.7a1.763,1.763,0,0,1,1.5.8,1.732,1.732,0,0,1,.3,1.5v6.8c0,3.1-.1,5.6-.1,7.3a1.844,1.844,0,0,1-1.1,1.5A1.73,1.73,0,0,1,326.7,189.9Z" fill="#e0e0e0"/>
            </g>
          </g>
          <g id="Group_12447" >
            <rect id="Rectangle_2397" width="49.6" height="4.7" transform="translate(227.313 178.388) rotate(0.265)" fill="#e8505b"/>
            <rect id="Rectangle_2398" width="49.6" height="4.7" transform="translate(227.313 178.388) rotate(0.265)" opacity="0.1"/>
          </g>
          <g id="Group_12448" >
            <rect id="Rectangle_2399" width="27.1" height="5" transform="translate(219.813 204.64) rotate(0.265)" fill="#e8505b"/>
            <rect id="Rectangle_2400" width="27.1" height="5" transform="translate(219.813 204.64) rotate(0.265)" fill="#940f7c"/>
          </g>
          <g id="Group_12450" >
            <g id="Group_12449" >
              <path id="Path_4332" d="M326,235.3a2.8,2.8,0,0,0,.6-.1,1.855,1.855,0,0,0,1.3-1.2,2.745,2.745,0,0,0,.2-1.3V220.1a2.232,2.232,0,0,0-.3-1.4,3.126,3.126,0,0,0-1.1-.9,8.083,8.083,0,0,0-1.6-.1H309.9c-22.5-.1-53.6-.2-87.9-.3a1.943,1.943,0,0,0-1.9,1.7v12.6a3.685,3.685,0,0,0,.1,1.5,2.1,2.1,0,0,0,.8,1.1,1.517,1.517,0,0,0,1.3.3h4.5c8.1,0,15.9.1,23.3.1,14.9.1,28.3.2,39.5.2,11.2.1,20.3.2,26.6.2,3.1,0,5.6.1,7.2.1h1.9a4.184,4.184,0,0,0,.7.1H289.7c-11.3,0-24.6-.1-39.5-.1-7.4,0-15.2-.1-23.3-.1h-4.5a3.167,3.167,0,0,1-1.6-.4,2.434,2.434,0,0,1-1-1.4,4.454,4.454,0,0,1-.1-1.6V219.1a2.5,2.5,0,0,1,2.5-2.2c34.3.2,65.4.4,87.9.5,5.6,0,10.7.1,15.2.1a4.879,4.879,0,0,1,1.7.1,2.209,2.209,0,0,1,1.3,1,2.149,2.149,0,0,1,.3,1.5v12.6a3.178,3.178,0,0,1-.2,1.4,2.062,2.062,0,0,1-2.4,1.2Z" fill="#e0e0e0"/>
            </g>
          </g>
          <g id="Group_12451" >
            <rect id="Rectangle_2401" width="27.1" height="5" transform="translate(219.613 252.041) rotate(0.264)" fill="#e8505b"/>
            <rect id="Rectangle_2402" width="27.1" height="5" transform="translate(219.613 252.041) rotate(0.264)" fill="#940f7c"/>
          </g>
          <g id="Group_12453" >
            <g id="Group_12452" >
              <path id="Path_4333" d="M325.8,282.7a2.8,2.8,0,0,0,.6-.1,1.855,1.855,0,0,0,1.3-1.2,2.745,2.745,0,0,0,.2-1.3V267.5a2.232,2.232,0,0,0-.3-1.4,3.126,3.126,0,0,0-1.1-.9,8.083,8.083,0,0,0-1.6-.1H309.7c-22.5-.1-53.6-.2-87.9-.3a1.943,1.943,0,0,0-1.9,1.7v12.6a3.685,3.685,0,0,0,.1,1.5,2.1,2.1,0,0,0,.8,1.1,1.517,1.517,0,0,0,1.3.3h4.5c8.1,0,15.9.1,23.3.1,14.9.1,28.3.2,39.5.2,11.2.1,20.3.2,26.6.2,3.1,0,5.6.1,7.2.1h1.9a4.184,4.184,0,0,0,.7.1H289.5c-11.3,0-24.6-.1-39.5-.1-7.4,0-15.2-.1-23.3-.1h-4.5a3.167,3.167,0,0,1-1.6-.4,2.434,2.434,0,0,1-1-1.4,4.454,4.454,0,0,1-.1-1.6V266.5a2.5,2.5,0,0,1,2.5-2.2c34.3.2,65.4.4,87.9.5,5.6,0,10.7.1,15.2.1a4.879,4.879,0,0,1,1.7.1,2.56,2.56,0,0,1,1.3,1,2.149,2.149,0,0,1,.3,1.5v12.6a3.178,3.178,0,0,1-.2,1.4,2.166,2.166,0,0,1-1.4,1.2Z" fill="#e0e0e0"/>
            </g>
          </g>
          <g id="Group_12454" >
            <rect id="Rectangle_2403" width="49.6" height="4.7" transform="translate(227.113 223.788) rotate(0.265)" fill="#e8505b"/>
            <rect id="Rectangle_2404" width="49.6" height="4.7" transform="translate(227.113 223.788) rotate(0.265)" opacity="0.1"/>
          </g>
          <g id="Group_12475" >
            <g id="Group_12464" >
              <g id="Group_12455" >
                <path id="Path_4334" d="M231.6,274.1a2.2,2.2,0,1,1-2.2-2.3A2.182,2.182,0,0,1,231.6,274.1Z" fill="#e8505b"/>
              </g>
              <g id="Group_12456" >
                <path id="Path_4335" d="M238.3,274.1a2.2,2.2,0,1,1-2.2-2.3A2.126,2.126,0,0,1,238.3,274.1Z" fill="#e8505b"/>
              </g>
              <g id="Group_12457" >
                <path id="Path_4336" d="M245.1,274.1a2.2,2.2,0,1,1-2.2-2.3A2.308,2.308,0,0,1,245.1,274.1Z" fill="#e8505b"/>
              </g>
              <g id="Group_12458" >
                <path id="Path_4337" d="M251.8,274.2a2.2,2.2,0,1,1-2.2-2.3A2.242,2.242,0,0,1,251.8,274.2Z" fill="#e8505b"/>
              </g>
              <g id="Group_12459" >
                <path id="Path_4338" d="M258.5,274.2a2.2,2.2,0,1,1-2.2-2.3A2.242,2.242,0,0,1,258.5,274.2Z" fill="#e8505b"/>
              </g>
              <g id="Group_12460" >
                <path id="Path_4339" d="M265.2,274.2a2.2,2.2,0,1,1-2.2-2.3A2.242,2.242,0,0,1,265.2,274.2Z" fill="#e8505b"/>
              </g>
              <g id="Group_12461" >
                <path id="Path_4340" d="M271.9,274.3a2.2,2.2,0,1,1-2.2-2.3A2.126,2.126,0,0,1,271.9,274.3Z" fill="#e8505b"/>
              </g>
              <g id="Group_12462" >
                <path id="Path_4341" d="M278.7,274.3a2.2,2.2,0,1,1-2.2-2.3A2.242,2.242,0,0,1,278.7,274.3Z" fill="#e8505b"/>
              </g>
              <g id="Group_12463" >
                <path id="Path_4342" d="M285.4,274.3a2.2,2.2,0,1,1-2.2-2.3A2.308,2.308,0,0,1,285.4,274.3Z" fill="#e8505b"/>
              </g>
            </g>
            <g id="Group_12474" >
              <g id="Group_12465" >
                <path id="Path_4343" d="M231.4,274.1a2.2,2.2,0,1,1-2.2-2.3A2.242,2.242,0,0,1,231.4,274.1Z" fill="#f98409"/>
              </g>
              <g id="Group_12466" >
                <path id="Path_4344" d="M238.1,274.1a2.2,2.2,0,1,1-2.2-2.3A2.242,2.242,0,0,1,238.1,274.1Z" fill="#f98409"/>
              </g>
              <g id="Group_12467" >
                <path id="Path_4345" d="M244.8,274.1a2.2,2.2,0,1,1-2.2-2.3A2.308,2.308,0,0,1,244.8,274.1Z" fill="#f98409"/>
              </g>
              <g id="Group_12468" >
                <path id="Path_4346" d="M251.5,274.2a2.2,2.2,0,1,1-2.2-2.3A2.182,2.182,0,0,1,251.5,274.2Z" fill="#f98409"/>
              </g>
              <g id="Group_12469" >
                <path id="Path_4347" d="M258.2,274.2a2.2,2.2,0,1,1-2.2-2.3A2.182,2.182,0,0,1,258.2,274.2Z" fill="#f98409"/>
              </g>
              <g id="Group_12470" >
                <path id="Path_4348" d="M265,274.2a2.2,2.2,0,1,1-2.2-2.3A2.308,2.308,0,0,1,265,274.2Z" fill="#f98409"/>
              </g>
              <g id="Group_12471" >
                <path id="Path_4349" d="M271.7,274.3a2.2,2.2,0,1,1-2.2-2.3A2.242,2.242,0,0,1,271.7,274.3Z" fill="#f98409"/>
              </g>
              <g id="Group_12472" >
                <path id="Path_4350" d="M278.4,274.3a2.2,2.2,0,1,1-2.2-2.3A2.242,2.242,0,0,1,278.4,274.3Z" fill="#f98409"/>
              </g>
              <g id="Group_12473" >
                <path id="Path_4351" d="M285.1,274.3a2.2,2.2,0,1,1-2.2-2.3A2.242,2.242,0,0,1,285.1,274.3Z" fill="#f98409"/>
              </g>
            </g>
          </g>
          <g id="Group_12478" >
            <g id="Group_12476" >
              <path id="Path_4352" d="M275.8,122.1a4.131,4.131,0,0,0,2.4-3.8,3.935,3.935,0,0,0-3.8-4.1,4.083,4.083,0,0,0-3.9,4.1,4.131,4.131,0,0,0,2.4,3.8c-5.9.9-5.6,7.3-5.6,7.3l14,.1C281.4,129.5,281.7,123,275.8,122.1Z" fill="#e8505b"/>
              <path id="Path_4353" d="M275.8,122.1a4.131,4.131,0,0,0,2.4-3.8,3.935,3.935,0,0,0-3.8-4.1,4.083,4.083,0,0,0-3.9,4.1,4.131,4.131,0,0,0,2.4,3.8c-5.9.9-5.6,7.3-5.6,7.3l14,.1C281.4,129.5,281.7,123,275.8,122.1Z" fill="#940f7c"/>
            </g>
            <g id="Group_12477" >
              <rect id="Rectangle_2405" width="49.8" height="5.9" transform="translate(248.716 133.488) rotate(0.265)" fill="#e8505b"/>
              <rect id="Rectangle_2406" width="49.8" height="5.9" transform="translate(248.716 133.488) rotate(0.265)" fill="#940f7c"/>
            </g>
          </g>
        </g>
      </g>
    </g>
    <g id="Speech_Bubble">
      <g id="Group_12486" >
        <g id="Group_12482" >
          <g id="Group_12481" >
            <path id="Path_4354" d="M115.6,164.5a1.75,1.75,0,0,0-.5.1c-.3,0-.8.1-1.4.1a11.15,11.15,0,0,0-2.3.3,7.973,7.973,0,0,0-1.5.3,9.83,9.83,0,0,0-1.6.5,26.96,26.96,0,0,0-7.8,3.9,27.858,27.858,0,0,0-7.7,8.5,34.059,34.059,0,0,0-2.7,6.1,31.916,31.916,0,0,0-1.2,7.1,24.13,24.13,0,0,0,.1,3.8,12.5,12.5,0,0,0,.3,1.9,14.158,14.158,0,0,0,.4,2,26.171,26.171,0,0,0,3,7.7,27.575,27.575,0,0,0,12.8,11.7,25.155,25.155,0,0,0,9.1,2,23.874,23.874,0,0,0,9.5-1.4l.9-.3h.1l.1.1c4.5,2.3,9,4.6,13.3,6.8l-.4.3c-1.4-4.4-2.8-8.7-4.1-12.8l-.1-.2.1-.1a28.071,28.071,0,0,0,7-11.6,29.455,29.455,0,0,0,1-12.4,28.933,28.933,0,0,0-3.5-10.5,29.865,29.865,0,0,0-6-7.4,30.835,30.835,0,0,0-6.5-4.2,27.7,27.7,0,0,0-5.5-1.7,11.212,11.212,0,0,1-2.1-.4c-.6,0-1.1-.1-1.5-.1s-.7-.1-.9-.1h.8a8.635,8.635,0,0,1,1.5.1q.9.15,2.1.3a26.515,26.515,0,0,1,5.6,1.7,26.786,26.786,0,0,1,12.7,11.5,28.888,28.888,0,0,1,3.6,10.6,30.388,30.388,0,0,1-1,12.6,28.347,28.347,0,0,1-7.1,11.8l.1-.3c1.3,4.1,2.7,8.4,4.1,12.8l.2.6-.6-.3c-4.3-2.2-8.8-4.4-13.3-6.7h.2l-.9.3a26.6,26.6,0,0,1-19-.7,28.175,28.175,0,0,1-13.1-11.9,28.594,28.594,0,0,1-3-7.8,14.159,14.159,0,0,1-.4-2c-.1-.7-.2-1.3-.3-2,0-1.3-.2-2.6-.1-3.9a33.743,33.743,0,0,1,1.2-7.3,29.237,29.237,0,0,1,2.8-6.2,28.535,28.535,0,0,1,7.8-8.6,26.81,26.81,0,0,1,7.9-3.8,10.461,10.461,0,0,1,1.7-.4l1.5-.3c.9-.1,1.7-.3,2.3-.3h1.4A4.265,4.265,0,0,0,115.6,164.5Z" fill="#f98409"/>
          </g>
        </g>
        <g id="Group_12485" >
          <g id="Group_12483" >
            <path id="Path_4355" d="M121.6,189.1h-1.9l-4.3-5.9v-3.9s-3-.2-2.7,4.9c.4,5.1,0,3.8,0,3.8s-6.4,0-6.9.6c-.4.4-.6,6.8-.6,10.2a3.911,3.911,0,0,0,2.6,3.8,1.7,1.7,0,0,0,.7.1c1.6,0,9.7-1.3,9.7-1.3h3.4V189.1Z" fill="#f98409"/>
          </g>
          <g id="Group_12484" >
            <path id="Path_4356" d="M127.2,188,126,201.3h-3.3v-13Z" fill="#f98409"/>
          </g>
        </g>
      </g>
    </g>
    <g id="Character">
      <g id="Group_12556" >
        <g id="Group_12555" >
          <g id="Group_12500" >
            <g id="Group_12487" >
              <path id="Path_4357" d="M166.9,459.3v-9l-16.2-.1-.1,13.6,1,.1c4.5.3,22.7.7,25.7-.2C180.6,462.7,166.9,459.3,166.9,459.3Z" fill="#e8505b"/>
            </g>
            <g id="Group_12489" >
              <g id="Group_12488" >
                <path id="Path_4358" d="M177.7,462.9c0,.2-6,.3-13.5.3s-13.5-.1-13.5-.3,6-.3,13.5-.3C171.6,462.6,177.7,462.7,177.7,462.9Z" fill="#263238"/>
              </g>
            </g>
            <g id="Group_12491" >
              <g id="Group_12490" >
                <path id="Path_4359" d="M167.2,461.2c-.1-.1,0-.5.3-1s.8-.7.9-.6-.1.5-.4.9S167.3,461.3,167.2,461.2Z" fill="#263238"/>
              </g>
            </g>
            <g id="Group_12493" >
              <g id="Group_12492" >
                <path id="Path_4360" d="M168.2,461.8c-.1-.1-.1-.6.3-1.1.3-.6.7-.9.9-.8.1.1-.1.6-.4,1.1C168.7,461.4,168.4,461.8,168.2,461.8Z" fill="#263238"/>
              </g>
            </g>
            <g id="Group_12495" >
              <g id="Group_12494" >
                <path id="Path_4361" d="M155.6,462.8c-.1,0-.3-.2-.7-.6a9.24,9.24,0,0,0-1.4-1.4,4.221,4.221,0,0,0-1.7-.8c-.5-.1-.8,0-.8-.1s.3-.3.9-.3a3.746,3.746,0,0,1,2.1.7,6.36,6.36,0,0,1,1.4,1.6A6.59,6.59,0,0,0,155.6,462.8Z" fill="#263238"/>
              </g>
            </g>
            <g id="Group_12497" >
              <g id="Group_12496" >
                <path id="Path_4362" d="M167.3,459.5c.1.1-.2.4-.7.6s-.9.1-.9,0c0-.2.3-.3.7-.5A1.011,1.011,0,0,1,167.3,459.5Z" fill="#263238"/>
              </g>
            </g>
            <g id="Group_12499" >
              <g id="Group_12498" >
                <path id="Path_4363" d="M167,458.6c0,.2-.4.3-1,.3-.5,0-1-.1-1-.3s.4-.3,1-.3C166.6,458.4,167,458.5,167,458.6Z" fill="#263238"/>
              </g>
            </g>
          </g>
          <g id="Group_12514" >
            <g id="Group_12501" >
              <path id="Path_4364" d="M206.7,459.3v-9l-16.2-.1-.1,13.5,1,.1c4.5.3,22.7.8,25.7-.1C220.4,462.7,206.7,459.3,206.7,459.3Z" fill="#e8505b"/>
            </g>
            <g id="Group_12503" >
              <g id="Group_12502" >
                <path id="Path_4365" d="M217.5,462.9c0,.2-6,.3-13.5.3s-13.5-.1-13.5-.3,6-.3,13.5-.3S217.5,462.7,217.5,462.9Z" fill="#263238"/>
              </g>
            </g>
            <g id="Group_12505" >
              <g id="Group_12504" >
                <path id="Path_4366" d="M207,461.2c-.1-.1,0-.5.3-1s.8-.7.9-.6-.1.5-.4.9S207.2,461.3,207,461.2Z" fill="#263238"/>
              </g>
            </g>
            <g id="Group_12507" >
              <g id="Group_12506" >
                <path id="Path_4367" d="M208,461.8c-.1-.1-.1-.6.3-1.1.3-.6.7-.9.9-.8.1.1-.1.6-.4,1.1C208.5,461.4,208.2,461.8,208,461.8Z" fill="#263238"/>
              </g>
            </g>
            <g id="Group_12509" >
              <g id="Group_12508" >
                <path id="Path_4368" d="M195.4,462.8c-.1,0-.3-.2-.7-.6a9.24,9.24,0,0,0-1.4-1.4,4.221,4.221,0,0,0-1.7-.8c-.5-.1-.8,0-.8-.1s.3-.3.9-.3a3.746,3.746,0,0,1,2.1.7,6.36,6.36,0,0,1,1.4,1.6A6.593,6.593,0,0,0,195.4,462.8Z" fill="#263238"/>
              </g>
            </g>
            <g id="Group_12511" >
              <g id="Group_12510" >
                <path id="Path_4369" d="M207.1,459.5c.1.1-.2.4-.7.6s-.9.1-.9,0c0-.2.3-.3.7-.5A1.011,1.011,0,0,1,207.1,459.5Z" fill="#263238"/>
              </g>
            </g>
            <g id="Group_12513" >
              <g id="Group_12512" >
                <path id="Path_4370" d="M206.8,458.6c0,.2-.4.3-1,.3-.5,0-1-.1-1-.3s.4-.3,1-.3C206.4,458.4,206.8,458.5,206.8,458.6Z" fill="#263238"/>
              </g>
            </g>
          </g>
          <g id="Group_12515" >
            <path id="Path_4371" d="M266.3,191.6c-.4-.4-1.5-.2-1.5-.2a5.1,5.1,0,0,0,0-1.8c-.2-.6-1.5-.5-1.5-.5a6.009,6.009,0,0,1,0-1.5.55.55,0,0,0-.3-.5,4.8,4.8,0,0,0-2-.4c-.8-.6,2.5-5.2,3.7-6.7s1-2.6-.1-2.6c-.7,0-4.6,4.4-5.8,5.9s-4.3,5.6-4.4,2.3-1.4-5.8-2.3-6.2c-.8-.4-1.7.6-1.3,1.5a10.053,10.053,0,0,1,.7,3.2,8.172,8.172,0,0,1-.1,2.7,35.78,35.78,0,0,1-1.4,4.8h-.1s-23,22.1-24.7,23.6c-1.5,1.4-31.4-1.7-37.4-2.3a38.738,38.738,0,0,0-6.2-.4c-2.6.1-3.1.5-5.7.5a130.536,130.536,0,0,0-19.5,1.7,16.112,16.112,0,0,0-12.7,11c-6,18.9-19.7,63.5-22.2,88.6a89.574,89.574,0,0,0-4.9,10.2c-1.7,4.6-1.3,4.8-.7,4.9,1.5.3,3.3-8,3.9-6,.7,2-3.3,9.9-1.7,10.1,2.1.3,3.8-8.4,4-9.1s1.3-.5,1,.2c-.3.9-3.3,10.8-1.2,11.1,1.1.2,1.3-1.9,1.3-1.9s2.1-9.4,3.1-9.2-.1,5.7-.5,7.6c-.5,1.8.2,2.8,1.2,2.3.7-.3,2.3-6,2.7-7.8s1.5-6.9,3-4,3.7,4.7,4.7,4.7a1.046,1.046,0,0,0,.5-1.9,11.122,11.122,0,0,1-2-2.6,7.714,7.714,0,0,1-1-2.5,29.333,29.333,0,0,1-.7-5.3L134,314c2.4-11.7,9.2-46,18.9-67.9l4,8.3,1.7,6.1L148.1,287l45.8-.6-6.8-26.3,8.3-27.4h0c9,.2,32,.5,35.9-1.2,4.8-2.2,29.8-33.7,29.8-33.7h0a49.3,49.3,0,0,0,4.7-4.1C265.7,193.8,267.2,192.6,266.3,191.6Z" fill="#ffbe9d"/>
          </g>
          <g id="Group_12529" >
            <g id="Group_12516" >
              <path id="Path_4372" d="M146.1,267.5c1.3-4.5,8.1-26.9,8.1-26.9s3.3,18.3,2.5,20.5a37.115,37.115,0,0,1-2.9,5.4c-7.7,11.8-6.7,17.7-6.7,17.7l46.8-1.4c.1-6.5-3.8-21.7-4.6-24.2-.8-2.4,1.9-10.4,1.9-10.4s5.3-5.4,5.1-8.1a45.358,45.358,0,0,0-.9-7.4l28.4,1-.9-19.3L182,210.3c-1.4,4-14.3,2.1-14.3,2.1-13.9.5-14.7,3-20.5,7.5s-15.3,43-15.3,43Z" fill="#940f7c"/>
            </g>
            <g id="Group_12518" >
              <g id="Group_12517" >
                <path id="Path_4373" d="M173.7,262.9a9.872,9.872,0,0,1-2.5.1c-1.5,0-3.6-.1-5.9-.3a53.628,53.628,0,0,1-5.9-.9,9.566,9.566,0,0,1-2.4-.6,9.414,9.414,0,0,1,2.5.2c1.5.2,3.6.5,5.9.7s4.4.4,5.9.5C172.8,262.8,173.7,262.9,173.7,262.9Z" fill="#263238"/>
              </g>
            </g>
            <g id="Group_12520" >
              <g id="Group_12519" >
                <path id="Path_4374" d="M176.9,259a11.043,11.043,0,0,1-2.6.9,53.028,53.028,0,0,1-6.4,1.2,38.637,38.637,0,0,1-6.5.3,15.2,15.2,0,0,1-2.7-.2,11.681,11.681,0,0,1,2.7-.1c1.7-.1,3.9-.2,6.4-.5a59.62,59.62,0,0,0,6.4-1.1A10.659,10.659,0,0,1,176.9,259Z" fill="#263238"/>
              </g>
            </g>
            <g id="Group_12522" >
              <g id="Group_12521" >
                <path id="Path_4375" d="M192.7,241.2a7.207,7.207,0,0,1-.3,2.4c-.3,1.5-.7,3.5-1.2,5.7s-1.1,4.2-1.5,5.6a9.1,9.1,0,0,1-.8,2.3,10.355,10.355,0,0,1,.4-2.4c.4-1.6.9-3.5,1.4-5.6s1-4,1.4-5.6A6.184,6.184,0,0,1,192.7,241.2Z" fill="#263238"/>
              </g>
            </g>
            <g id="Group_12524" >
              <g id="Group_12523" >
                <path id="Path_4376" d="M146.6,264.8a55.777,55.777,0,0,1-7.2-1.7c-3.9-1.1-7.1-2.1-7.1-2.2a55.777,55.777,0,0,1,7.2,1.7A66.707,66.707,0,0,1,146.6,264.8Z" fill="#263238"/>
              </g>
            </g>
            <g id="Group_12526" >
              <g id="Group_12525" >
                <path id="Path_4377" d="M195.8,232.4a3.631,3.631,0,0,1-1.2,0,13.408,13.408,0,0,1-3.2-.8,13,13,0,0,1-4.2-2.6,13.22,13.22,0,0,1-4.3-10.8,9.324,9.324,0,0,1,1.4-4.7,4.757,4.757,0,0,1,2.7-2,3.444,3.444,0,0,1,.9-.1h.3c0,.1-.4,0-1.2.3a4.75,4.75,0,0,0-2.4,2c-1.4,2.3-1.8,6.4-.3,10.2a12.849,12.849,0,0,0,3.3,4.8,15.136,15.136,0,0,0,4,2.6A15.793,15.793,0,0,0,195.8,232.4Z" fill="#263238"/>
              </g>
            </g>
            <g id="Group_12528" >
              <g id="Group_12527" >
                <path id="Path_4378" d="M220.4,233.4c-.2,0-.3-4.4-.3-9.7,0-5.4.1-9.7.3-9.7s.3,4.4.3,9.7S220.6,233.4,220.4,233.4Z" fill="#263238"/>
              </g>
            </g>
          </g>
          <g id="Group_12536" >
            <g id="Group_12530" >
              <path id="Path_4379" d="M181.7,211.5c.1-2.4.4-5,.4-5a7.067,7.067,0,0,0,6.2-6.7c.4-6,0-19.9,0-19.9l-10.6-5.4L166,183.7l1.8,30.1,10.7.7A2.994,2.994,0,0,0,181.7,211.5Z" fill="#ffbe9d"/>
            </g>
            <g id="Group_12532" >
              <g id="Group_12531" >
                <path id="Path_4380" d="M182.8,195.1a.774.774,0,0,1-.1.3.914.914,0,0,1-.7.3c-.7,0-1.3-.8-1.6-1.7a2.845,2.845,0,0,1,0-1.3c.1-.4.3-.8.6-.9.2-.1.3-.1.4,0l.2.2c.1.2,0,.3,0,.3a.31.31,0,0,0-.1-.2.44.44,0,0,0-.5-.1.894.894,0,0,0-.4.8,2.437,2.437,0,0,0,0,1.2c.2.8.8,1.5,1.3,1.5a1.072,1.072,0,0,0,.6-.2A1.238,1.238,0,0,0,182.8,195.1Z" fill="#eb996e"/>
              </g>
            </g>
            <g id="Group_12533" >
              <path id="Path_4381" d="M191.9,176.7c-.8-2.8-3.8-4.1-6.4-4.9-4.1-1.2-8.5-1.7-12.5-.2s-8.8,4-8.8,8.4c-2.4-.2-3.7,1.9-4.6,4.4a15.812,15.812,0,0,0-1,4.8h0c-.3,5.8-1.9,13.7-5.6,18-2.1,2.4-5,4-6.2,6.9-1,2.5-.5,5.6-1.5,8.1-.9,2.3-2.8,3.9-4.2,5.9-3,4.3-3.2,10.4-1,15.2a19.118,19.118,0,0,0,11.5,9.9,26.754,26.754,0,0,0,15.1.1,25.234,25.234,0,0,0,10.1-5,16.86,16.86,0,0,0,5.8-9.8c.7-4.3-.5-8.7-1.3-13-2.8-13.5-2-14.2,1.5-26.8.1-.2.1-.5.2-.7,0-.2.1-.3.1-.5h0a7.719,7.719,0,0,0,.2-1.5,2.79,2.79,0,0,1-3-.7,3.124,3.124,0,0,1-.7-3.2,4.917,4.917,0,0,1,2.7-2.6c1.2-.5,2.4-.7,3.6-1.3,2.4-1.2,4.1-3.6,5.3-6.1A8.856,8.856,0,0,0,191.9,176.7Z" fill="#263238"/>
            </g>
            <g id="Group_12535" >
              <g id="Group_12534" >
                <path id="Path_4382" d="M183.2,195.4a10.39,10.39,0,0,0,.6,1q.45,1.05,1.2,2.7l.1.2h-.2c-.4,0-.7.1-1.1.1-.7,0-1.3.1-2.1.1-.1,0-.2-.1-.3-.2V199c0-.2.1-.3.1-.4l.2-.7c.2-.9.4-1.5.4-1.5a7.654,7.654,0,0,1-.2,1.5l-.1.8c-.1.3-.1.6,0,.6a16.831,16.831,0,0,0,2-.2c.4,0,.7-.1,1.1-.1l-.1.2c-.5-1.1-.8-2-1.1-2.7A4.935,4.935,0,0,1,183.2,195.4Z" fill="#e8505b"/>
              </g>
            </g>
          </g>
          <g id="Group_12554" >
            <g id="Group_12537" >
              <path id="Path_4383" d="M147.1,284.1l46.8-1.4,20.3,79.4-3.7,91.1H185.8l3.1-89.2-18.1-55.3,2.8,148-25,.4L145.9,318c-.1-3.9-1.4-12.6-.9-16.4Z" fill="#263238"/>
            </g>
            <g id="Group_12539" >
              <g id="Group_12538" >
                <path id="Path_4384" d="M176.9,309.9a10.077,10.077,0,0,1-2.3-.1c-1.4-.2-3.3-.5-5.5-.9-2.1-.4-4-.9-5.4-1.3a7.433,7.433,0,0,1-2.2-.8c0-.2,3.4.7,7.7,1.5C173.5,309.2,176.9,309.8,176.9,309.9Z" fill="#455a64"/>
              </g>
            </g>
            <g id="Group_12541" >
              <g id="Group_12540" >
                <path id="Path_4385" d="M210.2,448.3c0,.2-5.6.3-12.5.3s-12.5-.1-12.5-.3,5.6-.3,12.5-.3S210.2,448.1,210.2,448.3Z" fill="#455a64"/>
              </g>
            </g>
            <g id="Group_12543" >
              <g id="Group_12542" >
                <path id="Path_4386" d="M173.3,453c0,.2-5.4.3-12.1.3s-12.1-.1-12.1-.3,5.4-.3,12.1-.3C167.8,452.7,173.3,452.8,173.3,453Z" fill="#455a64"/>
              </g>
            </g>
            <g id="Group_12545" >
              <g id="Group_12544" >
                <path id="Path_4387" d="M170,452.6c-.2,0-.8-32.3-1.5-72.2s-1.1-72.2-.9-72.2.8,32.3,1.5,72.2C169.8,420.2,170.2,452.6,170,452.6Z" fill="#455a64"/>
              </g>
            </g>
            <g id="Group_12547" >
              <g id="Group_12546" >
                <path id="Path_4388" d="M206.9,448.3v-1.7c0-1.1.1-2.8.1-4.9.1-4.2.4-10.3.6-17.9.6-15.1,1.4-35.9,2.3-58.9v-.5c-5.5-22.2-10.5-42.2-14.2-56.8-1.8-7.2-3.2-13.1-4.2-17.2-.5-2-.9-3.6-1.1-4.7a10.379,10.379,0,0,0-.3-1.2,1.577,1.577,0,0,1-.1-.4.584.584,0,0,1,.1.4,10.377,10.377,0,0,1,.3,1.2c.3,1.1.7,2.7,1.2,4.7,1,4.1,2.5,9.9,4.4,17.2,3.7,14.5,8.7,34.6,14.3,56.7h0v.6c-.9,23-1.8,43.8-2.4,58.9-.3,7.5-.6,13.6-.8,17.8-.1,2.1-.2,3.7-.2,4.9,0,.5-.1,1-.1,1.3A1.75,1.75,0,0,1,206.9,448.3Z" fill="#455a64"/>
              </g>
            </g>
            <g id="Group_12549" >
              <g id="Group_12548" >
                <path id="Path_4389" d="M198.8,362.5a32.458,32.458,0,0,1-5.5,1.2,41.051,41.051,0,0,1-5.1.7v-.2c.3.1.4.1.4.2h-1.1l.6-.2c.8-.2,2.8-.6,5-1A43.924,43.924,0,0,1,198.8,362.5Z" fill="#455a64"/>
              </g>
            </g>
            <g id="Group_12551" >
              <g id="Group_12550" >
                <path id="Path_4390" d="M198.4,365.5c0,.2-2.2,0-4.9-.2a38.555,38.555,0,0,1-4.9-.5,22.2,22.2,0,0,1,4.9,0A24.161,24.161,0,0,1,198.4,365.5Z" fill="#455a64"/>
              </g>
            </g>
            <g id="Group_12552" >
              <path id="Path_4391" d="M146.9,285.8c1.1,1.6,2.7,2.1,4.6,2.5a21.764,21.764,0,0,0,5.7-.1c12.1-1.3,24.9-2.6,36.7-5.5-15.3.9-31.5.6-46.8,1.4a8.317,8.317,0,0,1-.2,1.3" opacity="0.2"/>
            </g>
            <g id="Group_12553"  opacity="0.2">
              <path id="Path_4392" d="M162.7,307.4l8.6,33.4-.6-32Z"/>
            </g>
          </g>
        </g>
      </g>
    </g>
  </g>
</svg>
