<?xml version="1.0" encoding="utf-8"?>
<!-- Generator: Adobe Illustrator 24.1.1, SVG Export Plug-In . SVG Version: 6.00 Build 0)  -->
<svg version="1.1" id="line_Icons" xmlns="http://www.w3.org/2000/svg" xmlns:xlink="http://www.w3.org/1999/xlink" x="0px" y="0px"
	 viewBox="0 0 512 512" style="enable-background:new 0 0 512 512;" xml:space="preserve">
<style type="text/css">
	.st0{fill:#707070;}
</style>
<path class="st0" d="M365.3,498.2H146.7c-18.7,0-34.1-14.6-35.2-33.2L91.8,138.8c-0.2-3.8,2.7-7.1,6.5-7.3c0.1,0,0.3,0,0.4,0h314.6
	c3.8,0,6.9,3.1,6.9,6.9c0,0.1,0,0.3,0,0.4L400.5,465C399.4,483.6,384,498.1,365.3,498.2z M106,145.4l19.2,318.8
	c0.7,11.3,10.1,20.1,21.4,20.2h218.6c11.4,0,20.8-8.8,21.4-20.2L406,145.3L106,145.4z"/>
<path class="st0" d="M433.4,145.4H78.6c-3.8,0-6.9-3.1-6.9-6.9v-29.3c0-27.3,22.2-49.5,49.5-49.5h269.7c27.3,0,49.5,22.2,49.5,49.5
	v29.3C440.4,142.3,437.3,145.4,433.4,145.4C433.4,145.4,433.4,145.4,433.4,145.4L433.4,145.4z M85.5,131.5h341.1v-22.4
	c0-19.7-16-35.6-35.7-35.7H121.1c-19.7,0-35.6,16-35.7,35.7L85.5,131.5z"/>
<path class="st0" d="M319.9,73.5H192.1c-3.8,0-6.9-3.1-6.9-6.9V42c0-15.6,12.6-28.2,28.2-28.2h85.2c15.6,0,28.2,12.6,28.2,28.2v24.5
	C326.8,70.4,323.7,73.5,319.9,73.5z M199,59.6H313V42c0-7.9-6.4-14.4-14.4-14.4h-85.2c-7.9,0-14.4,6.4-14.4,14.4V59.6z"/>
<path class="st0" d="M325.6,427.2c-3.8,0-6.9-3.1-6.9-6.9V215.6c0-3.8,3.1-6.9,6.9-6.9s6.9,3.1,6.9,6.9v204.6
	C332.6,424.1,329.5,427.2,325.6,427.2z"/>
<path class="st0" d="M256,427.2c-3.8,0-6.9-3.1-6.9-6.9V215.6c0-3.8,3.1-6.9,6.9-6.9c3.8,0,6.9,3.1,6.9,6.9v204.6
	C262.9,424.1,259.8,427.2,256,427.2z"/>
<path class="st0" d="M186.4,427.2c-3.8,0-6.9-3.1-6.9-6.9V215.6c0-3.8,3.1-6.9,6.9-6.9s6.9,3.1,6.9,6.9v204.6
	C193.3,424.1,190.2,427.2,186.4,427.2z"/>
</svg>
