<svg id="user_3_" xmlns="http://www.w3.org/2000/svg" width="110.096" height="131.961" viewBox="0 0 110.096 131.961">
  <path id="Path_4199" d="M118.816,63.567a30.755,30.755,0,0,0,22.473-9.312A30.756,30.756,0,0,0,150.6,31.782,30.758,30.758,0,0,0,141.288,9.31a31.776,31.776,0,0,0-44.945,0,30.754,30.754,0,0,0-9.312,22.471,30.756,30.756,0,0,0,9.312,22.473A30.764,30.764,0,0,0,118.816,63.567Zm-17-48.788a24.042,24.042,0,0,1,34.008,0,22.979,22.979,0,0,1,7.046,17,22.978,22.978,0,0,1-7.046,17,24.04,24.04,0,0,1-34.008,0,22.973,22.973,0,0,1-7.048-17,22.975,22.975,0,0,1,7.048-17Zm0,0" transform="translate(-64.6 0)" fill="#858585"/>
  <path id="Path_4200" d="M109.829,285.045a78.511,78.511,0,0,0-1.069-8.338,65.69,65.69,0,0,0-2.051-8.383,41.409,41.409,0,0,0-3.447-7.819,29.475,29.475,0,0,0-5.2-6.773,22.914,22.914,0,0,0-7.465-4.691,25.8,25.8,0,0,0-9.53-1.725c-1.347,0-2.65.553-5.166,2.191-1.548,1.01-3.36,2.178-5.381,3.469a30.848,30.848,0,0,1-6.963,3.068,27.037,27.037,0,0,1-17.033,0,30.75,30.75,0,0,1-6.958-3.067c-2-1.28-3.815-2.448-5.386-3.471-2.514-1.638-3.817-2.191-5.164-2.191a25.765,25.765,0,0,0-9.529,1.727,22.889,22.889,0,0,0-7.466,4.691,29.476,29.476,0,0,0-5.2,6.772,41.482,41.482,0,0,0-3.446,7.82,65.853,65.853,0,0,0-2.05,8.382,77.974,77.974,0,0,0-1.069,8.341C.088,287.569,0,290.191,0,292.841c0,6.888,2.19,12.465,6.508,16.578,4.265,4.059,9.907,6.116,16.77,6.116h63.54c6.861,0,12.5-2.058,16.769-6.116,4.319-4.11,6.509-9.688,6.509-16.579,0-2.659-.091-5.282-.267-7.795ZM98.255,303.816C95.437,306.5,91.7,307.8,86.817,307.8H23.278c-4.88,0-8.621-1.3-11.438-3.985-2.764-2.631-4.107-6.222-4.107-10.976,0-2.473.082-4.914.245-7.258a70.323,70.323,0,0,1,.967-7.509,58.07,58.07,0,0,1,1.8-7.391,33.773,33.773,0,0,1,2.8-6.358,21.846,21.846,0,0,1,3.819-5,15.2,15.2,0,0,1,4.966-3.088,17.791,17.791,0,0,1,6.09-1.175c.271.144.753.419,1.534.928,1.59,1.036,3.422,2.218,5.448,3.512a38.316,38.316,0,0,0,8.74,3.905,34.762,34.762,0,0,0,21.79,0,38.354,38.354,0,0,0,8.745-3.908c2.073-1.325,3.854-2.473,5.444-3.51.781-.508,1.264-.784,1.534-.928a17.8,17.8,0,0,1,6.092,1.175,15.223,15.223,0,0,1,4.965,3.088,21.786,21.786,0,0,1,3.819,5.006,33.653,33.653,0,0,1,2.806,6.356,57.935,57.935,0,0,1,1.8,7.391,70.913,70.913,0,0,1,.967,7.511v0c.164,2.335.247,4.775.248,7.255,0,4.755-1.344,8.345-4.108,10.975Zm0,0" transform="translate(0 -183.574)" fill="#858585"/>
</svg>
