<svg width="229" height="201" viewBox="0 0 229 201" fill="none" xmlns="http://www.w3.org/2000/svg">
<path d="M104.46 191.588C152.761 191.588 191.916 152.433 191.916 104.132C191.916 55.8315 152.761 16.6761 104.46 16.6761C56.1593 16.6761 17.0039 55.8315 17.0039 104.132C17.0039 152.433 56.1593 191.588 104.46 191.588Z" fill="#F7ECF5"/>
<path d="M206.713 173.059C208.29 169.841 210.654 167.073 213.586 165.012C215.485 163.7 217.591 162.715 219.816 162.099C219.607 161.554 219.402 161.008 219.202 160.458C215.339 161.983 211.148 162.484 207.034 161.914C203.481 161.385 200.143 159.884 197.39 157.577C194.636 155.438 192.366 152.739 190.73 149.66C190.198 148.826 189.68 147.976 189.173 147.118C188.787 147.3 188.401 147.485 187.998 147.658C191.364 159.557 186.225 173.78 174.482 177.032L174.379 177.096C174.156 177.241 173.918 177.364 173.689 177.498C173.887 177.935 174.088 178.371 174.288 178.809C177.449 177.839 180.772 177.515 184.061 177.854C187.35 178.193 190.537 179.19 193.433 180.785C198.287 183.426 202.14 187.59 204.397 192.634C204.729 192.537 205.05 192.418 205.372 192.301C204.281 189.177 203.836 185.863 204.064 182.562C204.159 179.225 205.068 175.963 206.713 173.059Z" fill="#F2994A"/>
<path d="M19.8783 122.879C20.2595 123.539 18.1068 125.838 17.9336 127.346C17.7604 128.855 18.1972 131.419 17.5446 131.796C16.8921 132.173 14.8894 130.512 13.4965 129.908C12.1036 129.304 9.03608 130.019 8.65492 129.358C8.27375 128.698 9.87211 127.247 10.6216 125.23C11.371 123.213 10.2818 121.025 11.0648 120.573C11.8478 120.121 13.1981 122.158 15.3197 122.518C17.4414 122.877 19.4971 122.218 19.8783 122.879Z" fill="#F2994A"/>
<path d="M1 70.4697L9.25057 80.3704L17.5011 70.4697L25.7517 80.3704L34.0023 70.4697L42.2528 80.3704" stroke="#F2994A" stroke-width="2" stroke-miterlimit="10" stroke-linecap="round" stroke-linejoin="round"/>
<path d="M1.82422 58.9189L10.0748 68.8196L18.3253 58.9189L26.5759 68.8196L34.8265 58.9189L43.077 68.8196" stroke="#F2994A" stroke-width="2" stroke-miterlimit="10" stroke-linecap="round" stroke-linejoin="round"/>
<path d="M120.138 10.9007C122.872 10.9007 125.088 8.68434 125.088 5.95034C125.088 3.21634 122.872 1 120.138 1C117.404 1 115.188 3.21634 115.188 5.95034C115.188 8.68434 117.404 10.9007 120.138 10.9007Z" stroke="#F2994A" stroke-width="2" stroke-miterlimit="10"/>
<path d="M185.433 52.9296L87.0456 26.5669C83.8448 25.7092 80.5547 27.6087 79.6971 30.8095L45.6469 157.887C44.7892 161.087 46.6887 164.377 49.8895 165.235L148.277 191.598C151.477 192.455 154.767 190.556 155.625 187.355L189.675 60.2781C190.533 57.0773 188.633 53.7873 185.433 52.9296Z" fill="white" stroke="#262626" stroke-width="2" stroke-miterlimit="10"/>
<path d="M75.3516 113.974L134.325 129.776" stroke="#F2994A" stroke-width="2" stroke-miterlimit="10" stroke-linecap="round" stroke-linejoin="round"/>
<path d="M71.5059 128.319L144.028 147.751" stroke="#F2994A" stroke-width="2" stroke-miterlimit="10" stroke-linecap="round" stroke-linejoin="round"/>
<path d="M67.6621 142.664L126.636 158.466" stroke="#F2994A" stroke-width="2" stroke-miterlimit="10" stroke-linecap="round" stroke-linejoin="round"/>
<path d="M99.3013 81.9556C102.822 82.8991 105.964 82.5935 106.318 81.2731C106.671 79.9527 104.104 78.1174 100.583 77.174C97.0615 76.2305 93.9202 76.536 93.5664 77.8565C93.2126 79.1769 95.7802 81.0121 99.3013 81.9556Z" fill="#F7ECF5"/>
<path d="M104.627 74.8403C106.388 75.3121 108.389 73.5537 109.096 70.9128C109.804 68.272 108.95 65.7488 107.19 65.277C105.429 64.8053 103.428 66.5637 102.721 69.2045C102.013 71.8454 102.867 74.3686 104.627 74.8403Z" fill="#262626"/>
<path d="M112.523 57.4814C112.523 57.4814 109.574 61.4745 104.536 61.1496C101.337 60.9757 101.511 57.7765 101.511 57.7765" stroke="#262626" stroke-miterlimit="10" stroke-linecap="round" stroke-linejoin="round"/>
<path d="M146.069 85.9443C147.829 86.4161 149.83 84.6577 150.538 82.0168C151.245 79.376 150.392 76.8528 148.631 76.381C146.871 75.9093 144.87 77.6677 144.162 80.3085C143.455 82.9494 144.308 85.4726 146.069 85.9443Z" fill="#262626"/>
<path d="M148.715 95.1951C152.237 96.1385 155.378 95.833 155.732 94.5126C156.085 93.1921 153.518 91.3569 149.997 90.4134C146.476 89.4699 143.334 89.7755 142.98 91.0959C142.627 92.4163 145.194 94.2516 148.715 95.1951Z" fill="#F7ECF5"/>
<path d="M149.516 66.7094C149.516 66.7094 149.176 74.9892 159.178 75.2776" stroke="#262626" stroke-miterlimit="10" stroke-linecap="round" stroke-linejoin="round"/>
<path d="M115.126 93.0291C115.126 93.0291 127.138 92.8309 128.617 100.061" stroke="#262626" stroke-miterlimit="10" stroke-linecap="round" stroke-linejoin="round"/>
<path d="M196.102 42.1207C192.529 41.1634 188.904 42.1064 186.365 44.4347C185.331 41.1491 182.663 38.5196 179.09 37.5623C173.476 36.0581 167.652 39.4206 166.148 45.0345C163.436 55.1566 179.391 70.4631 179.391 70.4631C179.391 70.4631 200.839 65.2701 203.574 55.0629C205.078 49.4489 201.716 43.6249 196.102 42.1207Z" fill="#E2306C" stroke="#262626" stroke-width="2" stroke-linecap="round" stroke-linejoin="round"/>
<path d="M193.531 48.6014C193.531 48.6014 197.974 48.4143 198.122 53.7565" stroke="white" stroke-width="2" stroke-miterlimit="10" stroke-linecap="round" stroke-linejoin="round"/>
<line x1="204.889" y1="31.1252" x2="203.066" y2="37.1039" stroke="black" stroke-width="2" stroke-linecap="round" stroke-linejoin="round"/>
<line x1="1" y1="-1" x2="7.25057" y2="-1" transform="matrix(-0.956557 -0.291546 -0.291546 0.956557 218.281 59.9582)" stroke="black" stroke-width="2" stroke-linecap="round" stroke-linejoin="round"/>
<line x1="216.271" y1="42.3849" x2="210.508" y2="44.8031" stroke="black" stroke-width="2" stroke-linecap="round" stroke-linejoin="round"/>
</svg>
